<svg width="408" height="369" viewBox="0 0 408 369" fill="none" xmlns="http://www.w3.org/2000/svg">
<path d="M119.02 31.56L117.16 31.5L115.42 24.3C113.1 23.9 111.36 23.7 110.2 23.7C107.92 23.7 105.36 24.16 102.52 25.08C101.68 26.64 101.02 28.64 100.54 31.08C100.06 33.52 99.8204 35.82 99.8204 37.98C99.8204 49.02 103 54.54 109.36 54.54C112.08 54.54 114.24 54.14 115.84 53.34L117.1 46.02C119.62 46.02 121.54 46.16 122.86 46.44C123.5 50.8 123.82 54.34 123.82 57.06C122.86 57.78 120.92 58.58 118 59.46C115.12 60.34 112.28 60.78 109.48 60.78C97.5604 60.78 91.6004 53.42 91.6004 38.7C91.6004 31.7 93.0404 26.38 95.9204 22.74C98.8404 19.1 103.48 17.28 109.84 17.28C113 17.28 115.8 17.74 118.24 18.66C120.4 19.46 122.24 20.34 123.76 21.3C123.76 24.02 123.46 27.3 122.86 31.14C121.74 31.42 120.46 31.56 119.02 31.56ZM143.55 33.6C142.11 33.6 140.47 33.96 138.63 34.68C138.11 35.48 137.61 36.9 137.13 38.94C136.69 40.94 136.47 42.96 136.47 45C136.47 48.76 137.03 51.44 138.15 53.04C139.27 54.6 141.07 55.38 143.55 55.38C146.07 55.38 147.89 54.6 149.01 53.04C150.13 51.44 150.69 48.72 150.69 44.88C150.69 41 150.11 38.16 148.95 36.36C147.83 34.52 146.03 33.6 143.55 33.6ZM143.55 28.8C148.23 28.8 151.99 30.24 154.83 33.12C157.71 35.96 159.15 39.94 159.15 45.06C159.15 50.14 157.73 54.02 154.89 56.7C152.05 59.38 148.27 60.72 143.55 60.72C138.83 60.72 135.05 59.38 132.21 56.7C129.41 54.02 128.01 50.14 128.01 45.06C128.01 39.94 129.43 35.96 132.27 33.12C135.11 30.24 138.87 28.8 143.55 28.8ZM179.975 28.8C183.975 28.8 186.875 29.78 188.675 31.74C190.475 33.7 191.375 36.44 191.375 39.96C191.375 43.48 191.175 48.24 190.775 54.24L195.515 54.78C195.515 56.42 195.055 58.16 194.135 60H179.195L178.655 56.7C180.535 55.94 182.275 55.34 183.875 54.9C183.755 50.3 183.635 46.44 183.515 43.32C183.395 40.16 183.095 38.02 182.615 36.9C182.135 35.78 181.075 35.22 179.435 35.22C176.955 35.22 174.735 35.66 172.775 36.54C172.735 38.26 172.615 41.08 172.415 45C172.255 48.88 172.155 51.96 172.115 54.24L176.795 54.78C176.795 56.42 176.335 58.16 175.415 60H160.475L159.935 56.7C161.935 55.94 163.735 55.34 165.335 54.9C165.295 52.5 165.155 49.18 164.915 44.94C164.715 40.7 164.595 37.56 164.555 35.52C163.075 35.36 161.495 35.06 159.815 34.62L160.115 30.3C162.915 29.54 166.075 29.16 169.595 29.16C170.035 29.44 170.635 30.3 171.395 31.74C172.755 31.06 174.415 30.4 176.375 29.76C178.335 29.12 179.535 28.8 179.975 28.8ZM204.227 60.72L202.907 60.66C202.667 60.22 202.347 59.4 201.947 58.2C201.547 57 201.327 56.1 201.287 55.5C201.087 51.54 200.867 44.68 200.627 34.92H196.427L196.607 31.5C197.527 30.86 198.627 30.28 199.907 29.76L204.767 22.08C206.327 22.24 207.547 22.66 208.427 23.34L208.367 29.04C210.887 29.12 213.227 29.36 215.387 29.76C215.387 31.36 214.887 33.08 213.887 34.92H208.307C208.147 43.32 208.047 49.62 208.007 53.82C209.607 53.98 211.787 54.44 214.547 55.2L214.487 58.32C213.807 58.76 212.287 59.28 209.927 59.88C207.607 60.44 205.707 60.72 204.227 60.72ZM229.107 60.72C225.707 60.72 223.067 60.02 221.187 58.62C219.347 57.22 218.427 54.86 218.427 51.54C218.427 48.38 219.527 45.8 221.727 43.8C223.007 42.64 224.787 41.96 227.067 41.76C229.347 41.56 232.487 41.46 236.487 41.46V40.5C236.487 38.06 236.087 36.28 235.287 35.16C234.527 34 233.167 33.42 231.207 33.42C230.207 33.42 229.307 33.62 228.507 34.02L227.067 39.24L222.627 39.12C221.627 37.6 221.087 35.18 221.007 31.86C221.807 31.46 223.687 30.86 226.647 30.06C229.607 29.22 231.507 28.8 232.347 28.8C236.667 28.8 239.807 29.7 241.767 31.5C243.727 33.26 244.707 36.08 244.707 39.96C244.707 43.8 244.527 48.88 244.167 55.2C246.447 55.4 248.207 55.74 249.447 56.22C249.487 56.7 249.507 57.28 249.507 57.96L249.447 59.28C246.567 60.24 243.667 60.72 240.747 60.72C239.987 60.72 239.427 60.7 239.067 60.66C238.467 59.46 238.107 58.02 237.987 56.34H237.687C236.927 57.06 235.587 57.98 233.667 59.1C231.787 60.18 230.267 60.72 229.107 60.72ZM226.107 51.9C226.107 53.22 226.507 54.2 227.307 54.84C228.147 55.44 229.087 55.74 230.127 55.74C231.167 55.74 232.407 55.28 233.847 54.36C235.287 53.4 236.447 52.54 237.327 51.78L237.027 46.26C233.867 46.42 231.487 46.72 229.887 47.16C227.367 47.68 226.107 49.26 226.107 51.9ZM266.731 33.78L265.771 33.72C263.531 33.72 261.731 34.5 260.371 36.06C259.051 37.58 258.391 40.16 258.391 43.8C258.391 47.4 258.891 50.14 259.891 52.02C260.931 53.9 262.911 54.84 265.831 54.84C267.191 54.84 270.071 53.92 274.471 52.08C275.471 53.48 276.011 54.94 276.091 56.46C273.891 57.82 271.731 58.88 269.611 59.64C267.531 60.4 266.051 60.78 265.171 60.78C260.251 60.78 256.571 59.44 254.131 56.76C251.691 54.04 250.471 50.24 250.471 45.36C250.471 34.32 255.451 28.8 265.411 28.8C267.131 28.8 268.891 29.02 270.691 29.46C272.531 29.86 273.971 30.38 275.011 31.02C274.891 35.02 274.451 37.92 273.691 39.72C272.371 40.04 270.511 40.2 268.111 40.2L266.731 33.78ZM285.731 60.72L284.411 60.66C284.171 60.22 283.851 59.4 283.451 58.2C283.051 57 282.831 56.1 282.791 55.5C282.591 51.54 282.371 44.68 282.131 34.92H277.931L278.111 31.5C279.031 30.86 280.131 30.28 281.411 29.76L286.271 22.08C287.831 22.24 289.051 22.66 289.931 23.34L289.871 29.04C292.391 29.12 294.731 29.36 296.891 29.76C296.891 31.36 296.391 33.08 295.391 34.92H289.811C289.651 43.32 289.551 49.62 289.511 53.82C291.111 53.98 293.291 54.44 296.051 55.2L295.991 58.32C295.311 58.76 293.791 59.28 291.431 59.88C289.111 60.44 287.211 60.72 285.731 60.72ZM321.411 31.38L321.471 33.24C321.471 36.36 321.231 38.4 320.751 39.36C319.431 39.84 317.591 40.08 315.231 40.08L313.311 34.02C312.791 33.82 312.071 33.72 311.151 33.72C310.231 33.72 309.471 34 308.871 34.56C308.311 35.12 308.031 35.78 308.031 36.54C308.031 37.3 308.331 38 308.931 38.64C309.531 39.24 310.151 39.72 310.791 40.08C311.431 40.44 312.351 40.92 313.551 41.52C314.791 42.08 315.711 42.52 316.311 42.84C316.951 43.16 317.751 43.64 318.711 44.28C319.711 44.92 320.471 45.52 320.991 46.08C322.271 47.6 322.911 49.26 322.911 51.06C322.911 54.14 321.731 56.52 319.371 58.2C317.051 59.88 314.191 60.72 310.791 60.72C308.991 60.72 307.011 60.4 304.851 59.76C302.731 59.12 300.931 58.26 299.451 57.18C299.451 54.3 299.731 51.62 300.291 49.14C301.891 48.94 303.191 48.84 304.191 48.84C305.191 48.84 305.871 48.86 306.231 48.9L306.951 54.72C307.951 55.08 309.151 55.26 310.551 55.26C311.951 55.26 313.051 54.98 313.851 54.42C314.691 53.86 315.111 53.08 315.111 52.08C315.111 51.04 314.651 50.18 313.731 49.5C312.811 48.82 311.551 48.12 309.951 47.4C308.351 46.64 307.111 46.02 306.231 45.54C305.351 45.02 304.411 44.36 303.411 43.56C301.371 42 300.351 40.08 300.351 37.8C300.351 34.96 301.331 32.76 303.291 31.2C305.291 29.6 307.971 28.8 311.331 28.8C314.691 28.8 318.051 29.66 321.411 31.38Z" fill="white"/>
<path d="M82.9604 159.984V165.952H81.7444V159.984H75.7764V158.768H81.7444V152.816H82.9604V158.768H88.9124V159.984H82.9604ZM100.682 151.648C100.725 151.531 100.863 151.301 101.098 150.96C101.333 150.619 101.679 150.261 102.138 149.888C102.597 149.515 103.183 149.189 103.898 148.912C104.623 148.635 105.493 148.496 106.506 148.496C107.861 148.496 108.986 148.747 109.882 149.248C110.778 149.749 111.445 150.416 111.882 151.248C112.33 152.069 112.554 152.976 112.554 153.968C112.554 154.853 112.373 155.653 112.01 156.368C111.647 157.072 111.173 157.643 110.586 158.08C110.01 158.517 109.397 158.784 108.746 158.88C109.407 158.923 110.074 159.152 110.746 159.568C111.418 159.984 111.983 160.565 112.442 161.312C112.901 162.059 113.13 162.965 113.13 164.032C113.13 165.216 112.847 166.288 112.282 167.248C111.727 168.208 110.954 168.971 109.962 169.536C108.97 170.101 107.797 170.384 106.442 170.384C105.194 170.384 104.122 170.176 103.226 169.76C102.341 169.344 101.621 168.832 101.066 168.224C100.522 167.616 100.143 167.035 99.9299 166.48L101.146 165.776C101.327 166.256 101.637 166.752 102.074 167.264C102.522 167.776 103.109 168.213 103.834 168.576C104.559 168.928 105.418 169.104 106.41 169.104C107.551 169.104 108.517 168.875 109.306 168.416C110.095 167.947 110.693 167.328 111.098 166.56C111.514 165.792 111.722 164.944 111.722 164.016C111.722 162.971 111.466 162.117 110.954 161.456C110.453 160.795 109.797 160.309 108.986 160C108.186 159.68 107.327 159.52 106.41 159.52H105.994V158.336H106.538C107.349 158.336 108.111 158.165 108.826 157.824C109.551 157.483 110.133 156.992 110.57 156.352C111.018 155.712 111.242 154.939 111.242 154.032C111.242 152.848 110.847 151.84 110.058 151.008C109.279 150.176 108.079 149.76 106.458 149.76C105.605 149.76 104.885 149.877 104.298 150.112C103.722 150.347 103.263 150.624 102.922 150.944C102.581 151.253 102.33 151.536 102.17 151.792C102.021 152.048 101.946 152.192 101.946 152.224L100.682 151.648ZM123.352 170.384C122.061 170.384 120.93 170.107 119.96 169.552C118.989 168.997 118.232 168.261 117.688 167.344C117.154 166.416 116.888 165.392 116.888 164.272C116.888 163.184 117.08 162.267 117.464 161.52C117.848 160.763 118.354 160.149 118.984 159.68C119.613 159.2 120.29 158.843 121.016 158.608C120.504 158.405 120.002 158.101 119.512 157.696C119.021 157.291 118.61 156.768 118.28 156.128C117.96 155.488 117.8 154.709 117.8 153.792C117.8 152.757 118.04 151.845 118.52 151.056C119.01 150.256 119.672 149.632 120.504 149.184C121.346 148.725 122.285 148.496 123.32 148.496C124.365 148.496 125.304 148.725 126.136 149.184C126.968 149.632 127.624 150.256 128.104 151.056C128.584 151.845 128.824 152.757 128.824 153.792C128.824 155.157 128.493 156.219 127.832 156.976C127.181 157.733 126.445 158.277 125.624 158.608C126.349 158.843 127.026 159.2 127.656 159.68C128.285 160.149 128.792 160.763 129.176 161.52C129.57 162.267 129.768 163.184 129.768 164.272C129.768 165.392 129.501 166.416 128.968 167.344C128.434 168.261 127.682 168.997 126.712 169.552C125.752 170.107 124.632 170.384 123.352 170.384ZM123.32 169.104C124.258 169.104 125.101 168.891 125.848 168.464C126.605 168.027 127.208 167.44 127.656 166.704C128.114 165.957 128.344 165.125 128.344 164.208C128.344 163.28 128.114 162.448 127.656 161.712C127.208 160.965 126.605 160.379 125.848 159.952C125.101 159.515 124.258 159.296 123.32 159.296C122.392 159.296 121.544 159.515 120.776 159.952C120.018 160.379 119.416 160.965 118.968 161.712C118.52 162.448 118.296 163.28 118.296 164.208C118.296 165.125 118.52 165.957 118.968 166.704C119.416 167.44 120.018 168.027 120.776 168.464C121.544 168.891 122.392 169.104 123.32 169.104ZM123.336 158.064C124.093 158.064 124.786 157.877 125.416 157.504C126.045 157.12 126.546 156.613 126.92 155.984C127.293 155.355 127.48 154.656 127.48 153.888C127.48 153.131 127.293 152.437 126.92 151.808C126.546 151.179 126.045 150.677 125.416 150.304C124.786 149.931 124.093 149.744 123.336 149.744C122.568 149.744 121.864 149.931 121.224 150.304C120.594 150.677 120.088 151.179 119.704 151.808C119.33 152.437 119.144 153.131 119.144 153.888C119.144 154.656 119.33 155.355 119.704 155.984C120.088 156.613 120.594 157.12 121.224 157.504C121.864 157.877 122.568 158.064 123.336 158.064ZM145.971 176.384C145.363 175.637 144.733 174.581 144.083 173.216C143.443 171.851 142.899 170.245 142.451 168.4C142.003 166.555 141.779 164.555 141.779 162.4C141.779 160.736 141.907 159.152 142.163 157.648C142.429 156.133 142.771 154.741 143.187 153.472C143.603 152.192 144.051 151.061 144.531 150.08C145.011 149.099 145.475 148.309 145.923 147.712L146.979 148.448C146.424 149.173 145.848 150.213 145.251 151.568C144.653 152.923 144.147 154.523 143.731 156.368C143.325 158.213 143.123 160.224 143.123 162.4C143.123 164.437 143.325 166.331 143.731 168.08C144.136 169.819 144.632 171.328 145.219 172.608C145.805 173.899 146.371 174.891 146.915 175.584L145.971 176.384ZM150.484 159.456C150.484 157.547 150.703 155.904 151.14 154.528C151.588 153.141 152.175 152.005 152.9 151.12C153.636 150.224 154.447 149.563 155.332 149.136C156.228 148.709 157.129 148.496 158.036 148.496C158.953 148.496 159.855 148.709 160.74 149.136C161.636 149.563 162.447 150.224 163.172 151.12C163.897 152.005 164.473 153.141 164.9 154.528C165.337 155.904 165.556 157.547 165.556 159.456C165.556 161.344 165.337 162.976 164.9 164.352C164.473 165.717 163.897 166.848 163.172 167.744C162.447 168.629 161.636 169.291 160.74 169.728C159.855 170.165 158.953 170.384 158.036 170.384C157.129 170.384 156.228 170.165 155.332 169.728C154.447 169.291 153.636 168.629 152.9 167.744C152.175 166.848 151.588 165.717 151.14 164.352C150.703 162.976 150.484 161.344 150.484 159.456ZM151.892 159.456C151.892 161.6 152.18 163.387 152.756 164.816C153.343 166.245 154.105 167.317 155.044 168.032C155.983 168.736 156.98 169.088 158.036 169.088C159.113 169.088 160.116 168.736 161.044 168.032C161.983 167.317 162.74 166.245 163.316 164.816C163.892 163.387 164.18 161.6 164.18 159.456C164.18 157.28 163.892 155.483 163.316 154.064C162.74 152.635 161.983 151.568 161.044 150.864C160.116 150.149 159.113 149.792 158.036 149.792C156.98 149.792 155.983 150.149 155.044 150.864C154.105 151.568 153.343 152.635 152.756 154.064C152.18 155.493 151.892 157.291 151.892 159.456ZM170.412 166.224C170.454 166.341 170.577 166.555 170.78 166.864C170.982 167.173 171.27 167.504 171.644 167.856C172.028 168.197 172.518 168.491 173.116 168.736C173.713 168.981 174.438 169.104 175.292 169.104C176.998 169.104 178.342 168.555 179.324 167.456C180.305 166.357 180.785 164.896 180.764 163.072C180.742 161.387 180.294 160.096 179.42 159.2C178.556 158.304 177.42 157.856 176.012 157.856C175.137 157.856 174.374 158.016 173.724 158.336C173.073 158.656 172.54 159.051 172.124 159.52C171.718 159.979 171.43 160.421 171.26 160.848L169.932 160.464L171.676 148.88H181.276V150.16H172.924L171.692 158.544C171.734 158.437 171.926 158.229 172.268 157.92C172.609 157.6 173.105 157.301 173.756 157.024C174.417 156.747 175.238 156.608 176.22 156.608C177.308 156.608 178.289 156.848 179.164 157.328C180.049 157.808 180.758 158.528 181.292 159.488C181.825 160.448 182.097 161.637 182.108 163.056C182.118 164.464 181.868 165.723 181.356 166.832C180.844 167.931 180.081 168.8 179.068 169.44C178.054 170.069 176.801 170.384 175.308 170.384C174.252 170.384 173.345 170.24 172.588 169.952C171.841 169.653 171.228 169.301 170.748 168.896C170.268 168.491 169.9 168.107 169.644 167.744C169.398 167.371 169.244 167.109 169.18 166.96L170.412 166.224ZM185.484 159.456C185.484 157.547 185.703 155.904 186.14 154.528C186.588 153.141 187.175 152.005 187.9 151.12C188.636 150.224 189.447 149.563 190.332 149.136C191.228 148.709 192.129 148.496 193.036 148.496C193.953 148.496 194.855 148.709 195.74 149.136C196.636 149.563 197.447 150.224 198.172 151.12C198.897 152.005 199.473 153.141 199.9 154.528C200.337 155.904 200.556 157.547 200.556 159.456C200.556 161.344 200.337 162.976 199.9 164.352C199.473 165.717 198.897 166.848 198.172 167.744C197.447 168.629 196.636 169.291 195.74 169.728C194.855 170.165 193.953 170.384 193.036 170.384C192.129 170.384 191.228 170.165 190.332 169.728C189.447 169.291 188.636 168.629 187.9 167.744C187.175 166.848 186.588 165.717 186.14 164.352C185.703 162.976 185.484 161.344 185.484 159.456ZM186.892 159.456C186.892 161.6 187.18 163.387 187.756 164.816C188.343 166.245 189.105 167.317 190.044 168.032C190.983 168.736 191.98 169.088 193.036 169.088C194.113 169.088 195.116 168.736 196.044 168.032C196.983 167.317 197.74 166.245 198.316 164.816C198.892 163.387 199.18 161.6 199.18 159.456C199.18 157.28 198.892 155.483 198.316 154.064C197.74 152.635 196.983 151.568 196.044 150.864C195.116 150.149 194.113 149.792 193.036 149.792C191.98 149.792 190.983 150.149 190.044 150.864C189.105 151.568 188.343 152.635 187.756 154.064C187.18 155.493 186.892 157.291 186.892 159.456ZM204.628 176.384L203.684 175.584C204.238 174.891 204.804 173.899 205.38 172.608C205.966 171.328 206.462 169.819 206.868 168.08C207.273 166.331 207.476 164.437 207.476 162.4C207.476 160.224 207.268 158.213 206.852 156.368C206.446 154.523 205.94 152.923 205.332 151.568C204.734 150.213 204.164 149.173 203.62 148.448L204.676 147.712C205.124 148.309 205.588 149.099 206.068 150.08C206.548 151.061 206.99 152.192 207.396 153.472C207.812 154.741 208.148 156.133 208.404 157.648C208.67 159.152 208.804 160.736 208.804 162.4C208.804 164.555 208.58 166.555 208.132 168.4C207.694 170.245 207.15 171.851 206.5 173.216C205.86 174.581 205.236 175.637 204.628 176.384ZM230.558 148.88V164.272H232.958V165.552H230.558V170H229.214V165.552H220.206V164.336L229.342 148.88H230.558ZM229.214 164.272V151.648L221.79 164.272H229.214ZM243.008 170.384C241.717 170.384 240.587 170.107 239.616 169.552C238.645 168.997 237.888 168.261 237.344 167.344C236.811 166.416 236.544 165.392 236.544 164.272C236.544 163.184 236.736 162.267 237.12 161.52C237.504 160.763 238.011 160.149 238.64 159.68C239.269 159.2 239.947 158.843 240.672 158.608C240.16 158.405 239.659 158.101 239.168 157.696C238.677 157.291 238.267 156.768 237.936 156.128C237.616 155.488 237.456 154.709 237.456 153.792C237.456 152.757 237.696 151.845 238.176 151.056C238.667 150.256 239.328 149.632 240.16 149.184C241.003 148.725 241.941 148.496 242.976 148.496C244.021 148.496 244.96 148.725 245.792 149.184C246.624 149.632 247.28 150.256 247.76 151.056C248.24 151.845 248.48 152.757 248.48 153.792C248.48 155.157 248.149 156.219 247.488 156.976C246.837 157.733 246.101 158.277 245.28 158.608C246.005 158.843 246.683 159.2 247.312 159.68C247.941 160.149 248.448 160.763 248.832 161.52C249.227 162.267 249.424 163.184 249.424 164.272C249.424 165.392 249.157 166.416 248.624 167.344C248.091 168.261 247.339 168.997 246.368 169.552C245.408 170.107 244.288 170.384 243.008 170.384ZM242.976 169.104C243.915 169.104 244.757 168.891 245.504 168.464C246.261 168.027 246.864 167.44 247.312 166.704C247.771 165.957 248 165.125 248 164.208C248 163.28 247.771 162.448 247.312 161.712C246.864 160.965 246.261 160.379 245.504 159.952C244.757 159.515 243.915 159.296 242.976 159.296C242.048 159.296 241.2 159.515 240.432 159.952C239.675 160.379 239.072 160.965 238.624 161.712C238.176 162.448 237.952 163.28 237.952 164.208C237.952 165.125 238.176 165.957 238.624 166.704C239.072 167.44 239.675 168.027 240.432 168.464C241.2 168.891 242.048 169.104 242.976 169.104ZM242.992 158.064C243.749 158.064 244.443 157.877 245.072 157.504C245.701 157.12 246.203 156.613 246.576 155.984C246.949 155.355 247.136 154.656 247.136 153.888C247.136 153.131 246.949 152.437 246.576 151.808C246.203 151.179 245.701 150.677 245.072 150.304C244.443 149.931 243.749 149.744 242.992 149.744C242.224 149.744 241.52 149.931 240.88 150.304C240.251 150.677 239.744 151.179 239.36 151.808C238.987 152.437 238.8 153.131 238.8 153.888C238.8 154.656 238.987 155.355 239.36 155.984C239.744 156.613 240.251 157.12 240.88 157.504C241.52 157.877 242.224 158.064 242.992 158.064ZM253.938 148.88H266.514V150L255.138 170H253.602L264.914 150.16H253.938V148.88ZM286.777 148.88V164.272H289.177V165.552H286.777V170H285.433V165.552H276.425V164.336L285.561 148.88H286.777ZM285.433 164.272V151.648L278.009 164.272H285.433ZM292.688 148.88H305.264V150L293.888 170H292.352L303.664 150.16H292.688V148.88ZM315.703 159.456C315.703 157.547 315.921 155.904 316.359 154.528C316.807 153.141 317.393 152.005 318.119 151.12C318.855 150.224 319.665 149.563 320.551 149.136C321.447 148.709 322.348 148.496 323.255 148.496C324.172 148.496 325.073 148.709 325.959 149.136C326.855 149.563 327.665 150.224 328.391 151.12C329.116 152.005 329.692 153.141 330.119 154.528C330.556 155.904 330.775 157.547 330.775 159.456C330.775 161.344 330.556 162.976 330.119 164.352C329.692 165.717 329.116 166.848 328.391 167.744C327.665 168.629 326.855 169.291 325.959 169.728C325.073 170.165 324.172 170.384 323.255 170.384C322.348 170.384 321.447 170.165 320.551 169.728C319.665 169.291 318.855 168.629 318.119 167.744C317.393 166.848 316.807 165.717 316.359 164.352C315.921 162.976 315.703 161.344 315.703 159.456ZM317.111 159.456C317.111 161.6 317.399 163.387 317.975 164.816C318.561 166.245 319.324 167.317 320.263 168.032C321.201 168.736 322.199 169.088 323.255 169.088C324.332 169.088 325.335 168.736 326.263 168.032C327.201 167.317 327.959 166.245 328.535 164.816C329.111 163.387 329.399 161.6 329.399 159.456C329.399 157.28 329.111 155.483 328.535 154.064C327.959 152.635 327.201 151.568 326.263 150.864C325.335 150.149 324.332 149.792 323.255 149.792C322.199 149.792 321.201 150.149 320.263 150.864C319.324 151.568 318.561 152.635 317.975 154.064C317.399 155.493 317.111 157.291 317.111 159.456ZM337.63 150.448L333.742 152.736V151.36L337.87 148.88H338.958V170H337.63V150.448ZM82.101 201.984V207.952H80.885V201.984H74.917V200.768H80.885V194.816H82.101V200.768H88.053V201.984H82.101ZM99.8225 193.648C99.8652 193.531 100.004 193.301 100.239 192.96C100.473 192.619 100.82 192.261 101.279 191.888C101.737 191.515 102.324 191.189 103.039 190.912C103.764 190.635 104.633 190.496 105.647 190.496C107.001 190.496 108.127 190.747 109.023 191.248C109.919 191.749 110.585 192.416 111.023 193.248C111.471 194.069 111.695 194.976 111.695 195.968C111.695 196.853 111.513 197.653 111.151 198.368C110.788 199.072 110.313 199.643 109.727 200.08C109.151 200.517 108.537 200.784 107.887 200.88C108.548 200.923 109.215 201.152 109.887 201.568C110.559 201.984 111.124 202.565 111.583 203.312C112.041 204.059 112.271 204.965 112.271 206.032C112.271 207.216 111.988 208.288 111.423 209.248C110.868 210.208 110.095 210.971 109.103 211.536C108.111 212.101 106.937 212.384 105.583 212.384C104.335 212.384 103.263 212.176 102.367 211.76C101.481 211.344 100.761 210.832 100.207 210.224C99.6625 209.616 99.2838 209.035 99.0705 208.48L100.287 207.776C100.468 208.256 100.777 208.752 101.215 209.264C101.663 209.776 102.249 210.213 102.975 210.576C103.7 210.928 104.559 211.104 105.551 211.104C106.692 211.104 107.657 210.875 108.447 210.416C109.236 209.947 109.833 209.328 110.239 208.56C110.655 207.792 110.863 206.944 110.863 206.016C110.863 204.971 110.607 204.117 110.095 203.456C109.593 202.795 108.937 202.309 108.127 202C107.327 201.68 106.468 201.52 105.551 201.52H105.135V200.336H105.679C106.489 200.336 107.252 200.165 107.967 199.824C108.692 199.483 109.273 198.992 109.711 198.352C110.159 197.712 110.383 196.939 110.383 196.032C110.383 194.848 109.988 193.84 109.199 193.008C108.42 192.176 107.22 191.76 105.599 191.76C104.745 191.76 104.025 191.877 103.439 192.112C102.863 192.347 102.404 192.624 102.062 192.944C101.721 193.253 101.471 193.536 101.311 193.792C101.161 194.048 101.087 194.192 101.087 194.224L99.8225 193.648ZM122.492 212.384C121.202 212.384 120.071 212.107 119.1 211.552C118.13 210.997 117.372 210.261 116.828 209.344C116.295 208.416 116.028 207.392 116.028 206.272C116.028 205.184 116.22 204.267 116.604 203.52C116.988 202.763 117.495 202.149 118.124 201.68C118.754 201.2 119.431 200.843 120.156 200.608C119.644 200.405 119.143 200.101 118.652 199.696C118.162 199.291 117.751 198.768 117.42 198.128C117.1 197.488 116.94 196.709 116.94 195.792C116.94 194.757 117.18 193.845 117.66 193.056C118.151 192.256 118.812 191.632 119.644 191.184C120.487 190.725 121.426 190.496 122.46 190.496C123.506 190.496 124.444 190.725 125.276 191.184C126.108 191.632 126.764 192.256 127.244 193.056C127.724 193.845 127.964 194.757 127.964 195.792C127.964 197.157 127.634 198.219 126.972 198.976C126.322 199.733 125.586 200.277 124.764 200.608C125.49 200.843 126.167 201.2 126.796 201.68C127.426 202.149 127.932 202.763 128.316 203.52C128.711 204.267 128.908 205.184 128.908 206.272C128.908 207.392 128.642 208.416 128.108 209.344C127.575 210.261 126.823 210.997 125.852 211.552C124.892 212.107 123.772 212.384 122.492 212.384ZM122.46 211.104C123.399 211.104 124.242 210.891 124.988 210.464C125.746 210.027 126.348 209.44 126.796 208.704C127.255 207.957 127.484 207.125 127.484 206.208C127.484 205.28 127.255 204.448 126.796 203.712C126.348 202.965 125.746 202.379 124.988 201.952C124.242 201.515 123.399 201.296 122.46 201.296C121.532 201.296 120.684 201.515 119.916 201.952C119.159 202.379 118.556 202.965 118.108 203.712C117.66 204.448 117.436 205.28 117.436 206.208C117.436 207.125 117.66 207.957 118.108 208.704C118.556 209.44 119.159 210.027 119.916 210.464C120.684 210.891 121.532 211.104 122.46 211.104ZM122.476 200.064C123.234 200.064 123.927 199.877 124.556 199.504C125.186 199.12 125.687 198.613 126.06 197.984C126.434 197.355 126.62 196.656 126.62 195.888C126.62 195.131 126.434 194.437 126.06 193.808C125.687 193.179 125.186 192.677 124.556 192.304C123.927 191.931 123.234 191.744 122.476 191.744C121.708 191.744 121.004 191.931 120.364 192.304C119.735 192.677 119.228 193.179 118.844 193.808C118.471 194.437 118.284 195.131 118.284 195.888C118.284 196.656 118.471 197.355 118.844 197.984C119.228 198.613 119.735 199.12 120.364 199.504C121.004 199.877 121.708 200.064 122.476 200.064ZM145.111 218.384C144.503 217.637 143.874 216.581 143.223 215.216C142.583 213.851 142.039 212.245 141.591 210.4C141.143 208.555 140.919 206.555 140.919 204.4C140.919 202.736 141.047 201.152 141.303 199.648C141.57 198.133 141.911 196.741 142.327 195.472C142.743 194.192 143.191 193.061 143.671 192.08C144.151 191.099 144.615 190.309 145.063 189.712L146.119 190.448C145.565 191.173 144.989 192.213 144.391 193.568C143.794 194.923 143.287 196.523 142.871 198.368C142.466 200.213 142.263 202.224 142.263 204.4C142.263 206.437 142.466 208.331 142.871 210.08C143.277 211.819 143.773 213.328 144.359 214.608C144.946 215.899 145.511 216.891 146.055 217.584L145.111 218.384ZM149.625 201.456C149.625 199.547 149.843 197.904 150.281 196.528C150.729 195.141 151.315 194.005 152.041 193.12C152.777 192.224 153.587 191.563 154.473 191.136C155.369 190.709 156.27 190.496 157.177 190.496C158.094 190.496 158.995 190.709 159.881 191.136C160.777 191.563 161.587 192.224 162.313 193.12C163.038 194.005 163.614 195.141 164.041 196.528C164.478 197.904 164.697 199.547 164.697 201.456C164.697 203.344 164.478 204.976 164.041 206.352C163.614 207.717 163.038 208.848 162.313 209.744C161.587 210.629 160.777 211.291 159.881 211.728C158.995 212.165 158.094 212.384 157.177 212.384C156.27 212.384 155.369 212.165 154.473 211.728C153.587 211.291 152.777 210.629 152.041 209.744C151.315 208.848 150.729 207.717 150.281 206.352C149.843 204.976 149.625 203.344 149.625 201.456ZM151.033 201.456C151.033 203.6 151.321 205.387 151.897 206.816C152.483 208.245 153.246 209.317 154.185 210.032C155.123 210.736 156.121 211.088 157.177 211.088C158.254 211.088 159.257 210.736 160.185 210.032C161.123 209.317 161.881 208.245 162.457 206.816C163.033 205.387 163.321 203.6 163.321 201.456C163.321 199.28 163.033 197.483 162.457 196.064C161.881 194.635 161.123 193.568 160.185 192.864C159.257 192.149 158.254 191.792 157.177 191.792C156.121 191.792 155.123 192.149 154.185 192.864C153.246 193.568 152.483 194.635 151.897 196.064C151.321 197.493 151.033 199.291 151.033 201.456ZM175.296 198.464C176.555 198.464 177.696 198.768 178.72 199.376C179.744 199.973 180.56 200.8 181.168 201.856C181.787 202.901 182.096 204.091 182.096 205.424C182.096 206.757 181.771 207.947 181.12 208.992C180.48 210.037 179.616 210.864 178.528 211.472C177.451 212.08 176.262 212.384 174.96 212.384C173.627 212.384 172.432 212.075 171.376 211.456C170.32 210.837 169.483 209.984 168.864 208.896C168.256 207.808 167.952 206.555 167.952 205.136C167.952 203.707 168.208 202.485 168.72 201.472C169.232 200.448 169.846 199.483 170.56 198.576L176.672 190.88H178.336L171.072 199.888C171.382 199.547 171.904 199.227 172.64 198.928C173.387 198.619 174.272 198.464 175.296 198.464ZM175.056 211.152C176.112 211.152 177.072 210.896 177.936 210.384C178.8 209.861 179.488 209.168 180 208.304C180.512 207.429 180.768 206.459 180.768 205.392C180.768 204.336 180.512 203.376 180 202.512C179.488 201.648 178.8 200.96 177.936 200.448C177.072 199.936 176.112 199.68 175.056 199.68C174 199.68 173.035 199.936 172.16 200.448C171.296 200.96 170.603 201.648 170.08 202.512C169.558 203.376 169.296 204.336 169.296 205.392C169.296 206.459 169.558 207.429 170.08 208.304C170.603 209.168 171.296 209.861 172.16 210.384C173.035 210.896 174 211.152 175.056 211.152ZM186.016 190.88H198.592V192L187.216 212H185.68L196.992 192.16H186.016V190.88ZM202.206 218.384L201.262 217.584C201.816 216.891 202.382 215.899 202.958 214.608C203.544 213.328 204.04 211.819 204.446 210.08C204.851 208.331 205.054 206.437 205.054 204.4C205.054 202.224 204.846 200.213 204.43 198.368C204.024 196.523 203.518 194.923 202.91 193.568C202.312 192.213 201.742 191.173 201.198 190.448L202.254 189.712C202.702 190.309 203.166 191.099 203.646 192.08C204.126 193.061 204.568 194.192 204.974 195.472C205.39 196.741 205.726 198.133 205.982 199.648C206.248 201.152 206.382 202.736 206.382 204.4C206.382 206.555 206.158 208.555 205.71 210.4C205.272 212.245 204.728 213.851 204.078 215.216C203.438 216.581 202.814 217.637 202.206 218.384ZM219.896 208.224C219.939 208.341 220.061 208.555 220.264 208.864C220.467 209.173 220.755 209.504 221.128 209.856C221.512 210.197 222.003 210.491 222.6 210.736C223.197 210.981 223.923 211.104 224.776 211.104C226.483 211.104 227.827 210.555 228.808 209.456C229.789 208.357 230.269 206.896 230.248 205.072C230.227 203.387 229.779 202.096 228.904 201.2C228.04 200.304 226.904 199.856 225.496 199.856C224.621 199.856 223.859 200.016 223.208 200.336C222.557 200.656 222.024 201.051 221.608 201.52C221.203 201.979 220.915 202.421 220.744 202.848L219.416 202.464L221.16 190.88H230.76V192.16H222.408L221.176 200.544C221.219 200.437 221.411 200.229 221.752 199.92C222.093 199.6 222.589 199.301 223.24 199.024C223.901 198.747 224.723 198.608 225.704 198.608C226.792 198.608 227.773 198.848 228.648 199.328C229.533 199.808 230.243 200.528 230.776 201.488C231.309 202.448 231.581 203.637 231.592 205.056C231.603 206.464 231.352 207.723 230.84 208.832C230.328 209.931 229.565 210.8 228.552 211.44C227.539 212.069 226.285 212.384 224.792 212.384C223.736 212.384 222.829 212.24 222.072 211.952C221.325 211.653 220.712 211.301 220.232 210.896C219.752 210.491 219.384 210.107 219.128 209.744C218.883 209.371 218.728 209.109 218.664 208.96L219.896 208.224ZM241.992 191.776C241 191.776 240.131 191.963 239.384 192.336C238.638 192.699 238.019 193.131 237.528 193.632C237.038 194.123 236.664 194.571 236.408 194.976C236.163 195.371 236.03 195.589 236.008 195.632L234.744 195.12C234.766 195.067 234.867 194.875 235.048 194.544C235.23 194.213 235.507 193.824 235.88 193.376C236.254 192.917 236.723 192.469 237.288 192.032C237.854 191.595 238.526 191.232 239.304 190.944C240.094 190.645 240.99 190.496 241.992 190.496C242.92 190.496 243.752 190.619 244.488 190.864C245.224 191.109 245.854 191.483 246.376 191.984C246.91 192.485 247.315 193.125 247.592 193.904C247.88 194.683 248.024 195.6 248.024 196.656C248.024 197.541 247.79 198.48 247.32 199.472C246.851 200.464 246.243 201.461 245.496 202.464C244.76 203.456 243.96 204.411 243.096 205.328C242.232 206.235 241.395 207.067 240.584 207.824C239.774 208.571 239.064 209.2 238.456 209.712C237.859 210.213 237.459 210.549 237.256 210.72H247.848V212H235.016V210.816C235.454 210.453 236.04 209.968 236.776 209.36C237.512 208.752 238.318 208.053 239.192 207.264C240.078 206.464 240.952 205.616 241.816 204.72C242.691 203.824 243.491 202.907 244.216 201.968C244.952 201.029 245.539 200.112 245.976 199.216C246.414 198.309 246.632 197.461 246.632 196.672C246.632 194.848 246.227 193.579 245.416 192.864C244.616 192.139 243.475 191.776 241.992 191.776ZM251.843 201.456C251.843 199.547 252.062 197.904 252.499 196.528C252.947 195.141 253.534 194.005 254.259 193.12C254.995 192.224 255.806 191.563 256.691 191.136C257.587 190.709 258.489 190.496 259.395 190.496C260.313 190.496 261.214 190.709 262.099 191.136C262.995 191.563 263.806 192.224 264.531 193.12C265.257 194.005 265.833 195.141 266.259 196.528C266.697 197.904 266.915 199.547 266.915 201.456C266.915 203.344 266.697 204.976 266.259 206.352C265.833 207.717 265.257 208.848 264.531 209.744C263.806 210.629 262.995 211.291 262.099 211.728C261.214 212.165 260.313 212.384 259.395 212.384C258.489 212.384 257.587 212.165 256.691 211.728C255.806 211.291 254.995 210.629 254.259 209.744C253.534 208.848 252.947 207.717 252.499 206.352C252.062 204.976 251.843 203.344 251.843 201.456ZM253.251 201.456C253.251 203.6 253.539 205.387 254.115 206.816C254.702 208.245 255.465 209.317 256.403 210.032C257.342 210.736 258.339 211.088 259.395 211.088C260.473 211.088 261.475 210.736 262.403 210.032C263.342 209.317 264.099 208.245 264.675 206.816C265.251 205.387 265.539 203.6 265.539 201.456C265.539 199.28 265.251 197.483 264.675 196.064C264.099 194.635 263.342 193.568 262.403 192.864C261.475 192.149 260.473 191.792 259.395 191.792C258.339 191.792 257.342 192.149 256.403 192.864C255.465 193.568 254.702 194.635 254.115 196.064C253.539 197.493 253.251 199.291 253.251 201.456ZM281.396 192.448L277.508 194.736V193.36L281.636 190.88H282.724V212H281.396V192.448ZM296.917 190.88V206.272H299.317V207.552H296.917V212H295.573V207.552H286.565V206.336L295.701 190.88H296.917ZM295.573 206.272V193.648L288.149 206.272H295.573ZM309.75 201.456C309.75 199.547 309.968 197.904 310.406 196.528C310.854 195.141 311.44 194.005 312.166 193.12C312.902 192.224 313.712 191.563 314.598 191.136C315.494 190.709 316.395 190.496 317.302 190.496C318.219 190.496 319.12 190.709 320.006 191.136C320.902 191.563 321.712 192.224 322.438 193.12C323.163 194.005 323.739 195.141 324.166 196.528C324.603 197.904 324.822 199.547 324.822 201.456C324.822 203.344 324.603 204.976 324.166 206.352C323.739 207.717 323.163 208.848 322.438 209.744C321.712 210.629 320.902 211.291 320.006 211.728C319.12 212.165 318.219 212.384 317.302 212.384C316.395 212.384 315.494 212.165 314.598 211.728C313.712 211.291 312.902 210.629 312.166 209.744C311.44 208.848 310.854 207.717 310.406 206.352C309.968 204.976 309.75 203.344 309.75 201.456ZM311.158 201.456C311.158 203.6 311.446 205.387 312.022 206.816C312.608 208.245 313.371 209.317 314.31 210.032C315.248 210.736 316.246 211.088 317.302 211.088C318.379 211.088 319.382 210.736 320.31 210.032C321.248 209.317 322.006 208.245 322.582 206.816C323.158 205.387 323.446 203.6 323.446 201.456C323.446 199.28 323.158 197.483 322.582 196.064C322.006 194.635 321.248 193.568 320.31 192.864C319.382 192.149 318.379 191.792 317.302 191.792C316.246 191.792 315.248 192.149 314.31 192.864C313.371 193.568 312.608 194.635 312.022 196.064C311.446 197.493 311.158 199.291 311.158 201.456ZM328.797 190.88H341.373V192L329.997 212H328.461L339.773 192.16H328.797V190.88ZM75.6604 240.48C76.471 240.48 77.2657 240.656 78.0444 241.008C78.823 241.36 79.463 241.92 79.9644 242.688C80.4657 243.456 80.7164 244.453 80.7164 245.68V254H79.3404V246.048C79.3404 244.491 78.9777 243.381 78.2524 242.72C77.5377 242.048 76.6204 241.712 75.5004 241.712C74.7644 241.712 74.0497 241.931 73.3564 242.368C72.663 242.795 72.0924 243.381 71.6444 244.128C71.1964 244.864 70.9724 245.691 70.9724 246.608V254H69.5804V231.984H70.9724V243.488C71.0364 243.104 71.2817 242.677 71.7084 242.208C72.1457 241.739 72.7057 241.333 73.3884 240.992C74.0817 240.651 74.839 240.48 75.6604 240.48ZM90.7711 254.384C89.4698 254.384 88.3178 254.075 87.3151 253.456C86.3231 252.837 85.5391 252.005 84.9631 250.96C84.3871 249.915 84.0991 248.752 84.0991 247.472C84.0991 246.192 84.3871 245.024 84.9631 243.968C85.5391 242.901 86.3231 242.053 87.3151 241.424C88.3178 240.795 89.4698 240.48 90.7711 240.48C92.0618 240.48 93.2031 240.795 94.1951 241.424C95.1978 242.053 95.9818 242.901 96.5471 243.968C97.1125 245.024 97.3951 246.192 97.3951 247.472C97.3951 248.752 97.1125 249.915 96.5471 250.96C95.9818 252.005 95.1978 252.837 94.1951 253.456C93.2031 254.075 92.0618 254.384 90.7711 254.384ZM90.7711 253.104C91.8271 253.104 92.7551 252.859 93.5551 252.368C94.3551 251.877 94.9738 251.205 95.4111 250.352C95.8485 249.499 96.0671 248.539 96.0671 247.472C96.0671 246.405 95.8485 245.44 95.4111 244.576C94.9738 243.712 94.3551 243.029 93.5551 242.528C92.7551 242.016 91.8271 241.76 90.7711 241.76C89.7045 241.76 88.7711 242.016 87.9711 242.528C87.1711 243.029 86.5471 243.712 86.0991 244.576C85.6511 245.44 85.4271 246.405 85.4271 247.472C85.4271 248.539 85.6511 249.499 86.0991 250.352C86.5471 251.205 87.1711 251.877 87.9711 252.368C88.7711 252.859 89.7045 253.104 90.7711 253.104ZM99.7219 240.864H102.538V235.472H103.866V240.864H107.546V242.144H103.866V250.576C103.866 251.515 104.037 252.171 104.378 252.544C104.73 252.917 105.151 253.104 105.642 253.104C106.122 253.104 106.479 253.024 106.714 252.864C106.959 252.693 107.103 252.581 107.146 252.528L107.866 253.6C107.802 253.653 107.669 253.744 107.466 253.872C107.274 254 107.013 254.117 106.682 254.224C106.362 254.331 105.962 254.384 105.482 254.384C104.661 254.384 103.962 254.112 103.386 253.568C102.821 253.024 102.538 252.144 102.538 250.928V242.144H99.7219V240.864ZM111.069 247.456C111.069 248.448 111.256 249.381 111.629 250.256C112.002 251.131 112.573 251.84 113.341 252.384C114.109 252.917 115.074 253.184 116.237 253.184C117.176 253.184 117.949 253.029 118.557 252.72C119.176 252.411 119.661 252.043 120.013 251.616C120.376 251.189 120.632 250.816 120.781 250.496L121.789 251.328C121.384 251.989 120.92 252.549 120.397 253.008C119.874 253.467 119.272 253.808 118.589 254.032C117.906 254.267 117.096 254.384 116.157 254.384C114.781 254.384 113.608 254.064 112.637 253.424C111.677 252.784 110.946 251.925 110.445 250.848C109.954 249.771 109.709 248.576 109.709 247.264C109.709 245.984 109.954 244.832 110.445 243.808C110.946 242.784 111.672 241.973 112.621 241.376C113.581 240.779 114.738 240.48 116.093 240.48C117.288 240.48 118.333 240.757 119.229 241.312C120.125 241.856 120.818 242.608 121.309 243.568C121.81 244.517 122.061 245.611 122.061 246.848C122.061 246.944 122.056 247.051 122.045 247.168C122.034 247.275 122.029 247.371 122.029 247.456H111.069ZM120.653 246.24C120.632 245.6 120.477 244.928 120.189 244.224C119.912 243.509 119.442 242.907 118.781 242.416C118.13 241.925 117.234 241.68 116.093 241.68C114.888 241.68 113.933 241.92 113.229 242.4C112.536 242.869 112.029 243.461 111.709 244.176C111.4 244.88 111.213 245.568 111.149 246.24H120.653ZM127.065 254H125.689V231.984H127.065V254ZM135.926 240.48C136.502 240.48 137.04 240.549 137.542 240.688C138.054 240.816 138.507 240.981 138.902 241.184C139.296 241.376 139.595 241.557 139.798 241.728L139.03 242.736C138.806 242.523 138.416 242.293 137.862 242.048C137.307 241.803 136.678 241.68 135.974 241.68C135.067 241.68 134.294 241.872 133.654 242.256C133.014 242.64 132.694 243.195 132.694 243.92C132.694 244.613 133.014 245.168 133.654 245.584C134.304 246 135.142 246.341 136.166 246.608C136.944 246.8 137.643 247.045 138.262 247.344C138.88 247.632 139.366 248.021 139.718 248.512C140.08 249.003 140.262 249.648 140.262 250.448C140.262 251.12 140.128 251.701 139.862 252.192C139.595 252.683 139.227 253.088 138.758 253.408C138.288 253.728 137.75 253.968 137.142 254.128C136.534 254.299 135.883 254.384 135.19 254.384C134.518 254.384 133.888 254.304 133.302 254.144C132.715 253.995 132.208 253.808 131.782 253.584C131.355 253.349 131.024 253.136 130.79 252.944L131.59 251.808C131.867 252.107 132.326 252.411 132.966 252.72C133.606 253.019 134.363 253.168 135.238 253.168C136.283 253.168 137.147 252.917 137.83 252.416C138.512 251.915 138.854 251.264 138.854 250.464C138.854 249.856 138.688 249.376 138.358 249.024C138.038 248.672 137.611 248.389 137.078 248.176C136.555 247.963 136 247.787 135.414 247.648C134.848 247.499 134.315 247.328 133.814 247.136C133.323 246.933 132.891 246.683 132.518 246.384C132.144 246.085 131.851 245.733 131.638 245.328C131.424 244.912 131.318 244.432 131.318 243.888C131.318 243.205 131.526 242.613 131.942 242.112C132.358 241.6 132.918 241.2 133.622 240.912C134.326 240.624 135.094 240.48 135.926 240.48ZM151.328 240.864H153.184L146.016 247.12L153.52 254H151.648L144.848 247.808V254H143.504V231.984H144.848V246.512L151.328 240.864ZM156.288 254V240.864H157.632V254H156.288ZM156.992 235.12C156.662 235.12 156.379 235.008 156.144 234.784C155.92 234.549 155.808 234.267 155.808 233.936C155.808 233.605 155.926 233.328 156.16 233.104C156.395 232.869 156.672 232.752 156.992 232.752C157.206 232.752 157.403 232.805 157.584 232.912C157.776 233.019 157.926 233.163 158.032 233.344C158.15 233.515 158.208 233.712 158.208 233.936C158.208 234.267 158.086 234.549 157.84 234.784C157.606 235.008 157.323 235.12 156.992 235.12ZM161.137 240.864H164.177V236.96C164.177 235.584 164.38 234.512 164.785 233.744C165.191 232.965 165.703 232.416 166.321 232.096C166.94 231.765 167.569 231.6 168.209 231.6C168.967 231.6 169.553 231.712 169.969 231.936C170.396 232.149 170.641 232.277 170.705 232.32L170.097 233.44C170.033 233.387 169.841 233.275 169.521 233.104C169.212 232.923 168.764 232.832 168.177 232.832C167.751 232.832 167.329 232.939 166.913 233.152C166.508 233.365 166.167 233.781 165.889 234.4C165.623 235.019 165.489 235.952 165.489 237.2V240.864H169.553V242.128H165.489V254H164.177V242.128H161.137V240.864ZM172.801 254V240.864H174.145V254H172.801ZM173.505 235.12C173.175 235.12 172.892 235.008 172.657 234.784C172.433 234.549 172.321 234.267 172.321 233.936C172.321 233.605 172.439 233.328 172.673 233.104C172.908 232.869 173.185 232.752 173.505 232.752C173.719 232.752 173.916 232.805 174.097 232.912C174.289 233.019 174.439 233.163 174.545 233.344C174.663 233.515 174.721 233.712 174.721 233.936C174.721 234.267 174.599 234.549 174.353 234.784C174.119 235.008 173.836 235.12 173.505 235.12ZM189.861 254V251.152C189.797 251.44 189.551 251.845 189.125 252.368C188.698 252.891 188.106 253.36 187.349 253.776C186.591 254.181 185.69 254.384 184.645 254.384C183.471 254.384 182.383 254.117 181.381 253.584C180.378 253.04 179.567 252.251 178.949 251.216C178.341 250.171 178.037 248.912 178.037 247.44C178.037 245.968 178.341 244.715 178.949 243.68C179.567 242.635 180.378 241.84 181.381 241.296C182.383 240.752 183.471 240.48 184.645 240.48C185.679 240.48 186.575 240.683 187.333 241.088C188.101 241.483 188.703 241.936 189.141 242.448C189.578 242.949 189.818 243.371 189.861 243.712V240.864H191.173V254H189.861ZM179.381 247.44C179.381 248.624 179.637 249.643 180.149 250.496C180.661 251.349 181.322 252 182.133 252.448C182.943 252.896 183.791 253.12 184.677 253.12C185.658 253.12 186.533 252.891 187.301 252.432C188.069 251.973 188.677 251.317 189.125 250.464C189.573 249.611 189.797 248.603 189.797 247.44C189.797 246.277 189.573 245.269 189.125 244.416C188.677 243.563 188.069 242.907 187.301 242.448C186.533 241.979 185.658 241.744 184.677 241.744C183.791 241.744 182.943 241.973 182.133 242.432C181.322 242.88 180.661 243.531 180.149 244.384C179.637 245.237 179.381 246.256 179.381 247.44ZM205.534 254.384C203.966 254.384 202.499 254.123 201.134 253.6C199.779 253.067 198.585 252.315 197.55 251.344C196.526 250.373 195.721 249.221 195.134 247.888C194.558 246.544 194.27 245.056 194.27 243.424C194.27 241.803 194.574 240.325 195.182 238.992C195.801 237.648 196.649 236.491 197.726 235.52C198.814 234.549 200.057 233.803 201.454 233.28C202.851 232.757 204.334 232.496 205.902 232.496C207.395 232.496 208.793 232.741 210.094 233.232C211.406 233.723 212.558 234.421 213.55 235.328C214.542 236.224 215.315 237.296 215.87 238.544C216.435 239.792 216.718 241.173 216.718 242.688C216.718 243.915 216.478 244.955 215.998 245.808C215.529 246.661 214.931 247.312 214.206 247.76C213.491 248.208 212.771 248.432 212.046 248.432C211.097 248.432 210.425 248.213 210.03 247.776C209.646 247.328 209.443 246.773 209.422 246.112C209.369 246.539 209.15 246.965 208.766 247.392C208.382 247.808 207.865 248.16 207.214 248.448C206.574 248.736 205.838 248.88 205.006 248.88C203.886 248.88 202.921 248.64 202.11 248.16C201.299 247.68 200.675 247.04 200.238 246.24C199.811 245.429 199.598 244.544 199.598 243.584C199.598 242.624 199.811 241.755 200.238 240.976C200.665 240.187 201.278 239.557 202.078 239.088C202.889 238.619 203.859 238.384 204.99 238.384C205.822 238.384 206.542 238.533 207.15 238.832C207.758 239.131 208.233 239.456 208.574 239.808C208.926 240.149 209.129 240.395 209.182 240.544V238.768H210.382V245.552C210.382 245.712 210.419 245.941 210.494 246.24C210.569 246.528 210.723 246.795 210.958 247.04C211.193 247.285 211.545 247.408 212.014 247.408C212.462 247.408 212.953 247.248 213.486 246.928C214.03 246.597 214.499 246.085 214.894 245.392C215.289 244.688 215.486 243.781 215.486 242.672C215.486 241.413 215.241 240.24 214.75 239.152C214.27 238.053 213.598 237.093 212.734 236.272C211.87 235.451 210.857 234.811 209.694 234.352C208.531 233.893 207.267 233.664 205.902 233.664C204.569 233.664 203.278 233.904 202.03 234.384C200.793 234.864 199.683 235.541 198.702 236.416C197.721 237.291 196.942 238.325 196.366 239.52C195.79 240.704 195.502 242.005 195.502 243.424C195.502 244.832 195.774 246.133 196.318 247.328C196.873 248.512 197.614 249.541 198.542 250.416C199.481 251.291 200.553 251.973 201.758 252.464C202.963 252.944 204.222 253.184 205.534 253.184C206.675 253.184 207.71 253.024 208.638 252.704C209.566 252.384 210.355 251.995 211.006 251.536C211.657 251.067 212.137 250.619 212.446 250.192L213.502 251.04C213.139 251.509 212.579 252.005 211.822 252.528C211.065 253.04 210.153 253.477 209.086 253.84C208.03 254.203 206.846 254.384 205.534 254.384ZM205.086 247.744C206.398 247.744 207.411 247.323 208.126 246.48C208.841 245.637 209.198 244.635 209.198 243.472C209.198 242.693 209.011 242.011 208.638 241.424C208.275 240.827 207.785 240.357 207.166 240.016C206.547 239.675 205.854 239.504 205.086 239.504C203.859 239.504 202.846 239.893 202.046 240.672C201.257 241.451 200.862 242.427 200.862 243.6C200.862 244.752 201.241 245.733 201.998 246.544C202.755 247.344 203.785 247.744 205.086 247.744ZM225.901 261.008C224.781 261.008 223.826 260.885 223.037 260.64C222.247 260.395 221.591 260.075 221.069 259.68C220.557 259.296 220.167 258.896 219.901 258.48L221.021 257.568C221.191 257.835 221.447 258.139 221.789 258.48C222.13 258.821 222.621 259.115 223.261 259.36C223.911 259.616 224.786 259.744 225.885 259.744C226.973 259.744 227.885 259.488 228.621 258.976C229.367 258.475 229.927 257.808 230.301 256.976C230.674 256.144 230.861 255.243 230.861 254.272V253.776H232.173V254.384C232.173 255.813 231.89 257.019 231.325 258C230.759 258.992 230.002 259.739 229.053 260.24C228.114 260.752 227.063 261.008 225.901 261.008ZM230.861 254V251.152C230.797 251.44 230.551 251.845 230.125 252.368C229.698 252.891 229.106 253.36 228.349 253.776C227.591 254.181 226.69 254.384 225.645 254.384C224.471 254.384 223.383 254.117 222.381 253.584C221.378 253.04 220.567 252.251 219.949 251.216C219.341 250.171 219.037 248.912 219.037 247.44C219.037 245.968 219.341 244.715 219.949 243.68C220.567 242.635 221.378 241.84 222.381 241.296C223.383 240.752 224.471 240.48 225.645 240.48C226.679 240.48 227.575 240.683 228.333 241.088C229.101 241.483 229.703 241.936 230.141 242.448C230.578 242.949 230.818 243.371 230.861 243.712V240.864H232.173V254H230.861ZM220.381 247.44C220.381 248.624 220.637 249.643 221.149 250.496C221.661 251.349 222.322 252 223.133 252.448C223.943 252.896 224.791 253.12 225.677 253.12C226.658 253.12 227.533 252.891 228.301 252.432C229.069 251.973 229.677 251.317 230.125 250.464C230.573 249.611 230.797 248.603 230.797 247.44C230.797 246.277 230.573 245.269 230.125 244.416C229.677 243.563 229.069 242.907 228.301 242.448C227.533 241.979 226.658 241.744 225.677 241.744C224.791 241.744 223.943 241.973 223.133 242.432C222.322 242.88 221.661 243.531 221.149 244.384C220.637 245.237 220.381 246.256 220.381 247.44ZM250.658 240.48C251.618 240.48 252.418 240.699 253.058 241.136C253.709 241.563 254.194 242.213 254.514 243.088C254.845 243.952 255.01 245.056 255.01 246.4V254H253.666V246.848C253.666 245.067 253.426 243.771 252.946 242.96C252.477 242.149 251.639 241.744 250.434 241.744C249.837 241.744 249.234 241.915 248.626 242.256C248.029 242.587 247.527 243.125 247.122 243.872C246.717 244.619 246.514 245.611 246.514 246.848V254H245.202V246.848C245.202 245.067 244.893 243.771 244.274 242.96C243.666 242.149 242.871 241.744 241.89 241.744C241.282 241.744 240.685 241.904 240.098 242.224C239.511 242.544 239.026 243.077 238.642 243.824C238.258 244.571 238.066 245.579 238.066 246.848V254H236.722V240.864H238.066V242.976C238.173 242.645 238.407 242.288 238.77 241.904C239.143 241.509 239.623 241.173 240.21 240.896C240.807 240.619 241.495 240.48 242.274 240.48C243.085 240.48 243.757 240.672 244.29 241.056C244.823 241.44 245.234 241.893 245.522 242.416C245.821 242.939 245.997 243.403 246.05 243.808C246.21 243.285 246.498 242.773 246.914 242.272C247.33 241.76 247.853 241.333 248.482 240.992C249.122 240.651 249.847 240.48 250.658 240.48ZM270.329 254V251.152C270.265 251.44 270.02 251.845 269.593 252.368C269.167 252.891 268.575 253.36 267.817 253.776C267.06 254.181 266.159 254.384 265.113 254.384C263.94 254.384 262.852 254.117 261.849 253.584C260.847 253.04 260.036 252.251 259.417 251.216C258.809 250.171 258.505 248.912 258.505 247.44C258.505 245.968 258.809 244.715 259.417 243.68C260.036 242.635 260.847 241.84 261.849 241.296C262.852 240.752 263.94 240.48 265.113 240.48C266.148 240.48 267.044 240.683 267.801 241.088C268.569 241.483 269.172 241.936 269.609 242.448C270.047 242.949 270.287 243.371 270.329 243.712V240.864H271.641V254H270.329ZM259.849 247.44C259.849 248.624 260.105 249.643 260.617 250.496C261.129 251.349 261.791 252 262.601 252.448C263.412 252.896 264.26 253.12 265.145 253.12C266.127 253.12 267.001 252.891 267.769 252.432C268.537 251.973 269.145 251.317 269.593 250.464C270.041 249.611 270.265 248.603 270.265 247.44C270.265 246.277 270.041 245.269 269.593 244.416C269.145 243.563 268.537 242.907 267.769 242.448C267.001 241.979 266.127 241.744 265.145 241.744C264.26 241.744 263.412 241.973 262.601 242.432C261.791 242.88 261.129 243.531 260.617 244.384C260.105 245.237 259.849 246.256 259.849 247.44ZM276.195 254V240.864H277.539V254H276.195ZM276.899 235.12C276.568 235.12 276.285 235.008 276.051 234.784C275.827 234.549 275.715 234.267 275.715 233.936C275.715 233.605 275.832 233.328 276.067 233.104C276.301 232.869 276.579 232.752 276.899 232.752C277.112 232.752 277.309 232.805 277.491 232.912C277.683 233.019 277.832 233.163 277.939 233.344C278.056 233.515 278.115 233.712 278.115 233.936C278.115 234.267 277.992 234.549 277.747 234.784C277.512 235.008 277.229 235.12 276.899 235.12ZM283.972 254H282.596V231.984H283.972V254ZM291.376 254.384C290.928 254.384 290.544 254.229 290.224 253.92C289.904 253.6 289.744 253.216 289.744 252.768C289.744 252.299 289.904 251.909 290.224 251.6C290.544 251.28 290.928 251.12 291.376 251.12C291.824 251.12 292.208 251.28 292.528 251.6C292.848 251.909 293.008 252.299 293.008 252.768C293.008 253.216 292.848 253.6 292.528 253.92C292.208 254.229 291.824 254.384 291.376 254.384ZM304.206 253.12C305.188 253.12 305.972 252.971 306.558 252.672C307.156 252.363 307.518 252.155 307.646 252.048L308.414 253.136C308.34 253.2 308.105 253.333 307.71 253.536C307.326 253.739 306.82 253.931 306.19 254.112C305.572 254.293 304.868 254.384 304.078 254.384C303.097 254.384 302.126 254.128 301.166 253.616C300.206 253.104 299.406 252.331 298.766 251.296C298.137 250.261 297.822 248.971 297.822 247.424C297.822 245.867 298.137 244.576 298.766 243.552C299.406 242.528 300.206 241.76 301.166 241.248C302.126 240.736 303.097 240.48 304.078 240.48C304.868 240.48 305.561 240.581 306.158 240.784C306.756 240.976 307.241 241.189 307.614 241.424C307.988 241.659 308.217 241.824 308.302 241.92L307.566 243.024C307.47 242.928 307.284 242.779 307.006 242.576C306.729 242.363 306.356 242.171 305.886 242C305.428 241.829 304.868 241.744 304.206 241.744C303.406 241.744 302.617 241.963 301.838 242.4C301.06 242.837 300.414 243.477 299.902 244.32C299.401 245.163 299.15 246.197 299.15 247.424C299.15 248.651 299.401 249.691 299.902 250.544C300.414 251.387 301.06 252.027 301.838 252.464C302.617 252.901 303.406 253.12 304.206 253.12ZM317.334 254.384C316.032 254.384 314.88 254.075 313.878 253.456C312.886 252.837 312.102 252.005 311.526 250.96C310.95 249.915 310.662 248.752 310.662 247.472C310.662 246.192 310.95 245.024 311.526 243.968C312.102 242.901 312.886 242.053 313.878 241.424C314.88 240.795 316.032 240.48 317.334 240.48C318.624 240.48 319.766 240.795 320.758 241.424C321.76 242.053 322.544 242.901 323.11 243.968C323.675 245.024 323.958 246.192 323.958 247.472C323.958 248.752 323.675 249.915 323.11 250.96C322.544 252.005 321.76 252.837 320.758 253.456C319.766 254.075 318.624 254.384 317.334 254.384ZM317.334 253.104C318.39 253.104 319.318 252.859 320.118 252.368C320.918 251.877 321.536 251.205 321.974 250.352C322.411 249.499 322.63 248.539 322.63 247.472C322.63 246.405 322.411 245.44 321.974 244.576C321.536 243.712 320.918 243.029 320.118 242.528C319.318 242.016 318.39 241.76 317.334 241.76C316.267 241.76 315.334 242.016 314.534 242.528C313.734 243.029 313.11 243.712 312.662 244.576C312.214 245.44 311.99 246.405 311.99 247.472C311.99 248.539 312.214 249.499 312.662 250.352C313.11 251.205 313.734 251.877 314.534 252.368C315.334 252.859 316.267 253.104 317.334 253.104ZM341.564 240.48C342.524 240.48 343.324 240.699 343.964 241.136C344.615 241.563 345.1 242.213 345.42 243.088C345.751 243.952 345.916 245.056 345.916 246.4V254H344.572V246.848C344.572 245.067 344.332 243.771 343.852 242.96C343.383 242.149 342.546 241.744 341.34 241.744C340.743 241.744 340.14 241.915 339.532 242.256C338.935 242.587 338.434 243.125 338.028 243.872C337.623 244.619 337.42 245.611 337.42 246.848V254H336.108V246.848C336.108 245.067 335.799 243.771 335.18 242.96C334.572 242.149 333.778 241.744 332.796 241.744C332.188 241.744 331.591 241.904 331.004 242.224C330.418 242.544 329.932 243.077 329.548 243.824C329.164 244.571 328.972 245.579 328.972 246.848V254H327.628V240.864H328.972V242.976C329.079 242.645 329.314 242.288 329.676 241.904C330.05 241.509 330.53 241.173 331.116 240.896C331.714 240.619 332.402 240.48 333.18 240.48C333.991 240.48 334.663 240.672 335.196 241.056C335.73 241.44 336.14 241.893 336.428 242.416C336.727 242.939 336.903 243.403 336.956 243.808C337.116 243.285 337.404 242.773 337.82 242.272C338.236 241.76 338.759 241.333 339.388 240.992C340.028 240.651 340.754 240.48 341.564 240.48Z" fill="white"/>
<path d="M137.399 104.496C138.615 104.496 139.66 104.635 140.535 104.912C141.42 105.189 142.113 105.483 142.615 105.792C143.127 106.101 143.431 106.304 143.527 106.4L142.119 108.656C141.959 108.517 141.676 108.32 141.271 108.064C140.865 107.797 140.359 107.563 139.751 107.36C139.143 107.147 138.449 107.04 137.671 107.04C136.465 107.04 135.511 107.285 134.807 107.776C134.113 108.256 133.766 108.939 133.766 109.824C133.766 110.421 133.948 110.949 134.311 111.408C134.684 111.856 135.207 112.267 135.879 112.64C136.551 113.013 137.335 113.397 138.231 113.792C138.967 114.101 139.687 114.453 140.391 114.848C141.105 115.243 141.751 115.707 142.327 116.24C142.913 116.773 143.377 117.392 143.719 118.096C144.071 118.8 144.247 119.611 144.247 120.528C144.247 121.435 144.06 122.251 143.687 122.976C143.324 123.701 142.807 124.32 142.135 124.832C141.473 125.333 140.7 125.717 139.815 125.984C138.929 126.251 137.975 126.384 136.951 126.384C135.66 126.384 134.492 126.224 133.447 125.904C132.412 125.584 131.575 125.248 130.935 124.896C130.305 124.544 129.943 124.325 129.847 124.24L131.335 121.888C131.463 121.995 131.697 122.155 132.039 122.368C132.38 122.571 132.801 122.784 133.303 123.008C133.804 123.232 134.369 123.424 134.999 123.584C135.628 123.733 136.3 123.808 137.015 123.808C138.444 123.808 139.527 123.488 140.263 122.848C140.999 122.208 141.367 121.387 141.367 120.384C141.367 119.616 141.132 118.955 140.663 118.4C140.193 117.845 139.569 117.349 138.791 116.912C138.012 116.475 137.153 116.053 136.215 115.648C135.255 115.211 134.375 114.731 133.575 114.208C132.775 113.685 132.129 113.061 131.639 112.336C131.159 111.6 130.919 110.715 130.919 109.68C130.919 108.656 131.207 107.755 131.783 106.976C132.369 106.197 133.153 105.589 134.135 105.152C135.127 104.715 136.215 104.496 137.399 104.496ZM155.681 112.864H159.041L152.257 119.12L159.489 126H156.081L149.985 120.176V126H147.201V103.984H149.985V118.064L155.681 112.864ZM161.734 126V112.864H164.518V126H161.734ZM163.158 108.368C162.657 108.368 162.225 108.192 161.862 107.84C161.51 107.477 161.334 107.045 161.334 106.544C161.334 106.043 161.51 105.611 161.862 105.248C162.225 104.885 162.657 104.704 163.158 104.704C163.489 104.704 163.793 104.789 164.07 104.96C164.358 105.131 164.587 105.355 164.758 105.632C164.929 105.899 165.014 106.203 165.014 106.544C165.014 107.045 164.833 107.477 164.47 107.84C164.107 108.192 163.67 108.368 163.158 108.368ZM167.542 112.864H170.23V109.136C170.23 107.803 170.459 106.731 170.918 105.92C171.387 105.109 171.979 104.523 172.694 104.16C173.419 103.787 174.16 103.6 174.918 103.6C175.835 103.6 176.539 103.728 177.03 103.984C177.531 104.24 177.83 104.411 177.926 104.496L176.806 106.624C176.752 106.56 176.587 106.443 176.31 106.272C176.032 106.101 175.654 106.016 175.174 106.016C174.822 106.016 174.48 106.101 174.15 106.272C173.819 106.443 173.542 106.773 173.318 107.264C173.094 107.755 172.982 108.485 172.982 109.456V112.864H176.726V115.248H172.982V126H170.23V115.248H167.542V112.864ZM179.542 126V112.864H182.326V126H179.542ZM180.966 108.368C180.464 108.368 180.032 108.192 179.67 107.84C179.318 107.477 179.142 107.045 179.142 106.544C179.142 106.043 179.318 105.611 179.67 105.248C180.032 104.885 180.464 104.704 180.966 104.704C181.296 104.704 181.6 104.789 181.878 104.96C182.166 105.131 182.395 105.355 182.566 105.632C182.736 105.899 182.822 106.203 182.822 106.544C182.822 107.045 182.64 107.477 182.278 107.84C181.915 108.192 181.478 108.368 180.966 108.368ZM197.146 126V123.44C197.061 123.707 196.81 124.075 196.394 124.544C195.989 125.013 195.429 125.44 194.714 125.824C194.01 126.197 193.178 126.384 192.218 126.384C191.002 126.384 189.898 126.096 188.906 125.52C187.925 124.944 187.141 124.139 186.554 123.104C185.978 122.059 185.69 120.837 185.69 119.44C185.69 118.043 185.978 116.827 186.554 115.792C187.141 114.747 187.925 113.936 188.906 113.36C189.898 112.773 191.002 112.48 192.218 112.48C193.168 112.48 193.989 112.651 194.682 112.992C195.386 113.333 195.946 113.728 196.362 114.176C196.789 114.624 197.04 115.008 197.114 115.328V112.864H199.866V126H197.146ZM188.442 119.44C188.442 120.389 188.65 121.211 189.066 121.904C189.482 122.597 190.021 123.136 190.682 123.52C191.354 123.893 192.069 124.08 192.826 124.08C193.637 124.08 194.362 123.888 195.002 123.504C195.642 123.12 196.149 122.581 196.522 121.888C196.896 121.184 197.082 120.368 197.082 119.44C197.082 118.512 196.896 117.701 196.522 117.008C196.149 116.304 195.642 115.76 195.002 115.376C194.362 114.981 193.637 114.784 192.826 114.784C192.069 114.784 191.354 114.976 190.682 115.36C190.021 115.744 189.482 116.283 189.066 116.976C188.65 117.669 188.442 118.491 188.442 119.44ZM224.483 116.64H214.355V126H211.651V104.88H214.355V114.176H224.483V104.88H227.187V126H224.483V116.64ZM237.479 126.384C236.124 126.384 234.919 126.08 233.863 125.472C232.817 124.864 231.996 124.043 231.399 123.008C230.801 121.963 230.503 120.784 230.503 119.472C230.503 118.16 230.801 116.976 231.399 115.92C231.996 114.864 232.817 114.027 233.863 113.408C234.919 112.789 236.124 112.48 237.479 112.48C238.823 112.48 240.012 112.789 241.047 113.408C242.092 114.027 242.908 114.864 243.495 115.92C244.081 116.976 244.375 118.16 244.375 119.472C244.375 120.784 244.081 121.963 243.495 123.008C242.908 124.043 242.092 124.864 241.047 125.472C240.012 126.08 238.823 126.384 237.479 126.384ZM237.479 124C238.332 124 239.073 123.803 239.703 123.408C240.343 123.013 240.839 122.475 241.191 121.792C241.543 121.099 241.719 120.32 241.719 119.456C241.719 118.592 241.543 117.813 241.191 117.12C240.839 116.427 240.343 115.877 239.703 115.472C239.073 115.067 238.332 114.864 237.479 114.864C236.615 114.864 235.863 115.067 235.223 115.472C234.583 115.877 234.081 116.427 233.719 117.12C233.367 117.813 233.191 118.592 233.191 119.456C233.191 120.32 233.367 121.099 233.719 121.792C234.081 122.475 234.583 123.013 235.223 123.408C235.863 123.803 236.615 124 237.479 124ZM246.341 112.864H248.917V107.472H251.685V112.864H255.061V115.248H251.685V121.744C251.685 122.512 251.819 123.077 252.085 123.44C252.363 123.803 252.731 123.984 253.189 123.984C253.595 123.984 253.909 123.909 254.133 123.76C254.357 123.611 254.491 123.509 254.533 123.456L255.637 125.504C255.573 125.557 255.403 125.659 255.125 125.808C254.848 125.957 254.491 126.091 254.053 126.208C253.616 126.325 253.104 126.384 252.517 126.384C251.493 126.384 250.635 126.075 249.941 125.456C249.259 124.827 248.917 123.835 248.917 122.48V115.248H246.341V112.864ZM259.799 120C259.81 120.789 259.98 121.509 260.311 122.16C260.642 122.811 261.132 123.328 261.783 123.712C262.444 124.096 263.255 124.288 264.215 124.288C265.026 124.288 265.714 124.171 266.279 123.936C266.855 123.691 267.324 123.403 267.687 123.072C268.05 122.731 268.311 122.427 268.471 122.16L269.831 123.84C269.479 124.352 269.047 124.8 268.535 125.184C268.034 125.568 267.42 125.861 266.695 126.064C265.97 126.277 265.084 126.384 264.039 126.384C262.631 126.384 261.41 126.085 260.375 125.488C259.351 124.88 258.562 124.043 258.007 122.976C257.452 121.899 257.175 120.667 257.175 119.28C257.175 118 257.436 116.848 257.959 115.824C258.482 114.789 259.239 113.973 260.231 113.376C261.234 112.779 262.439 112.48 263.847 112.48C265.138 112.48 266.258 112.752 267.207 113.296C268.167 113.829 268.908 114.587 269.431 115.568C269.964 116.549 270.231 117.723 270.231 119.088C270.231 119.173 270.226 119.328 270.215 119.552C270.204 119.765 270.194 119.915 270.183 120H259.799ZM267.575 117.904C267.564 117.467 267.436 116.987 267.191 116.464C266.956 115.941 266.572 115.493 266.039 115.12C265.506 114.747 264.786 114.56 263.879 114.56C262.94 114.56 262.183 114.741 261.607 115.104C261.042 115.467 260.626 115.909 260.359 116.432C260.092 116.944 259.938 117.435 259.895 117.904H267.575ZM276.201 126H273.401V103.984H276.201V126ZM282.691 126.384C282.105 126.384 281.598 126.176 281.171 125.76C280.755 125.333 280.547 124.827 280.547 124.24C280.547 123.632 280.755 123.12 281.171 122.704C281.598 122.277 282.105 122.064 282.691 122.064C283.299 122.064 283.811 122.277 284.227 122.704C284.643 123.12 284.851 123.632 284.851 124.24C284.851 124.827 284.643 125.333 284.227 125.76C283.811 126.176 283.299 126.384 282.691 126.384ZM282.691 116.224C282.105 116.224 281.598 116.016 281.171 115.6C280.755 115.173 280.547 114.667 280.547 114.08C280.547 113.472 280.755 112.96 281.171 112.544C281.598 112.117 282.105 111.904 282.691 111.904C283.299 111.904 283.811 112.117 284.227 112.544C284.643 112.96 284.851 113.472 284.851 114.08C284.851 114.667 284.643 115.173 284.227 115.6C283.811 116.016 283.299 116.224 282.691 116.224Z" fill="white"/>
<path d="M70.7885 347.984V353.952H69.5725V347.984H63.6045V346.768H69.5725V340.816H70.7885V346.768H76.7405V347.984H70.7885ZM80.885 339.648C80.9277 339.531 81.0663 339.301 81.301 338.96C81.5357 338.619 81.8823 338.261 82.341 337.888C82.7997 337.515 83.3863 337.189 84.101 336.912C84.8263 336.635 85.6957 336.496 86.709 336.496C88.0637 336.496 89.189 336.747 90.085 337.248C90.981 337.749 91.6477 338.416 92.085 339.248C92.533 340.069 92.757 340.976 92.757 341.968C92.757 342.853 92.5757 343.653 92.213 344.368C91.8503 345.072 91.3757 345.643 90.789 346.08C90.213 346.517 89.5997 346.784 88.949 346.88C89.6103 346.923 90.277 347.152 90.949 347.568C91.621 347.984 92.1863 348.565 92.645 349.312C93.1037 350.059 93.333 350.965 93.333 352.032C93.333 353.216 93.0503 354.288 92.485 355.248C91.9303 356.208 91.157 356.971 90.165 357.536C89.173 358.101 87.9997 358.384 86.645 358.384C85.397 358.384 84.325 358.176 83.429 357.76C82.5437 357.344 81.8237 356.832 81.269 356.224C80.725 355.616 80.3463 355.035 80.133 354.48L81.349 353.776C81.5303 354.256 81.8397 354.752 82.277 355.264C82.725 355.776 83.3117 356.213 84.037 356.576C84.7623 356.928 85.621 357.104 86.613 357.104C87.7543 357.104 88.7197 356.875 89.509 356.416C90.2983 355.947 90.8957 355.328 91.301 354.56C91.717 353.792 91.925 352.944 91.925 352.016C91.925 350.971 91.669 350.117 91.157 349.456C90.6557 348.795 89.9997 348.309 89.189 348C88.389 347.68 87.5303 347.52 86.613 347.52H86.197V346.336H86.741C87.5517 346.336 88.3143 346.165 89.029 345.824C89.7543 345.483 90.3357 344.992 90.773 344.352C91.221 343.712 91.445 342.939 91.445 342.032C91.445 340.848 91.0503 339.84 90.261 339.008C89.4823 338.176 88.2823 337.76 86.661 337.76C85.8077 337.76 85.0877 337.877 84.501 338.112C83.925 338.347 83.4663 338.624 83.125 338.944C82.7837 339.253 82.533 339.536 82.373 339.792C82.2237 340.048 82.149 340.192 82.149 340.224L80.885 339.648ZM103.555 358.384C102.264 358.384 101.133 358.107 100.163 357.552C99.1921 356.997 98.4348 356.261 97.8908 355.344C97.3574 354.416 97.0908 353.392 97.0908 352.272C97.0908 351.184 97.2828 350.267 97.6668 349.52C98.0508 348.763 98.5574 348.149 99.1868 347.68C99.8161 347.2 100.493 346.843 101.219 346.608C100.707 346.405 100.205 346.101 99.7148 345.696C99.2241 345.291 98.8134 344.768 98.4828 344.128C98.1628 343.488 98.0028 342.709 98.0028 341.792C98.0028 340.757 98.2428 339.845 98.7228 339.056C99.2134 338.256 99.8748 337.632 100.707 337.184C101.549 336.725 102.488 336.496 103.523 336.496C104.568 336.496 105.507 336.725 106.339 337.184C107.171 337.632 107.827 338.256 108.307 339.056C108.787 339.845 109.027 340.757 109.027 341.792C109.027 343.157 108.696 344.219 108.035 344.976C107.384 345.733 106.648 346.277 105.827 346.608C106.552 346.843 107.229 347.2 107.859 347.68C108.488 348.149 108.995 348.763 109.379 349.52C109.773 350.267 109.971 351.184 109.971 352.272C109.971 353.392 109.704 354.416 109.171 355.344C108.637 356.261 107.885 356.997 106.915 357.552C105.955 358.107 104.835 358.384 103.555 358.384ZM103.523 357.104C104.461 357.104 105.304 356.891 106.051 356.464C106.808 356.027 107.411 355.44 107.859 354.704C108.317 353.957 108.547 353.125 108.547 352.208C108.547 351.28 108.317 350.448 107.859 349.712C107.411 348.965 106.808 348.379 106.051 347.952C105.304 347.515 104.461 347.296 103.523 347.296C102.595 347.296 101.747 347.515 100.979 347.952C100.221 348.379 99.6188 348.965 99.1708 349.712C98.7228 350.448 98.4988 351.28 98.4988 352.208C98.4988 353.125 98.7228 353.957 99.1708 354.704C99.6188 355.44 100.221 356.027 100.979 356.464C101.747 356.891 102.595 357.104 103.523 357.104ZM103.539 346.064C104.296 346.064 104.989 345.877 105.619 345.504C106.248 345.12 106.749 344.613 107.123 343.984C107.496 343.355 107.683 342.656 107.683 341.888C107.683 341.131 107.496 340.437 107.123 339.808C106.749 339.179 106.248 338.677 105.619 338.304C104.989 337.931 104.296 337.744 103.539 337.744C102.771 337.744 102.067 337.931 101.427 338.304C100.797 338.677 100.291 339.179 99.9068 339.808C99.5334 340.437 99.3468 341.131 99.3468 341.888C99.3468 342.656 99.5334 343.355 99.9068 343.984C100.291 344.613 100.797 345.12 101.427 345.504C102.067 345.877 102.771 346.064 103.539 346.064ZM126.174 364.384C125.566 363.637 124.936 362.581 124.286 361.216C123.646 359.851 123.102 358.245 122.654 356.4C122.206 354.555 121.982 352.555 121.982 350.4C121.982 348.736 122.11 347.152 122.366 345.648C122.632 344.133 122.974 342.741 123.39 341.472C123.806 340.192 124.254 339.061 124.734 338.08C125.214 337.099 125.678 336.309 126.126 335.712L127.182 336.448C126.627 337.173 126.051 338.213 125.454 339.568C124.856 340.923 124.35 342.523 123.934 344.368C123.528 346.213 123.326 348.224 123.326 350.4C123.326 352.437 123.528 354.331 123.934 356.08C124.339 357.819 124.835 359.328 125.422 360.608C126.008 361.899 126.574 362.891 127.118 363.584L126.174 364.384ZM130.687 347.456C130.687 345.547 130.906 343.904 131.343 342.528C131.791 341.141 132.378 340.005 133.103 339.12C133.839 338.224 134.65 337.563 135.535 337.136C136.431 336.709 137.332 336.496 138.239 336.496C139.156 336.496 140.058 336.709 140.943 337.136C141.839 337.563 142.65 338.224 143.375 339.12C144.1 340.005 144.676 341.141 145.103 342.528C145.54 343.904 145.759 345.547 145.759 347.456C145.759 349.344 145.54 350.976 145.103 352.352C144.676 353.717 144.1 354.848 143.375 355.744C142.65 356.629 141.839 357.291 140.943 357.728C140.058 358.165 139.156 358.384 138.239 358.384C137.332 358.384 136.431 358.165 135.535 357.728C134.65 357.291 133.839 356.629 133.103 355.744C132.378 354.848 131.791 353.717 131.343 352.352C130.906 350.976 130.687 349.344 130.687 347.456ZM132.095 347.456C132.095 349.6 132.383 351.387 132.959 352.816C133.546 354.245 134.308 355.317 135.247 356.032C136.186 356.736 137.183 357.088 138.239 357.088C139.316 357.088 140.319 356.736 141.247 356.032C142.186 355.317 142.943 354.245 143.519 352.816C144.095 351.387 144.383 349.6 144.383 347.456C144.383 345.28 144.095 343.483 143.519 342.064C142.943 340.635 142.186 339.568 141.247 338.864C140.319 338.149 139.316 337.792 138.239 337.792C137.183 337.792 136.186 338.149 135.247 338.864C134.308 339.568 133.546 340.635 132.959 342.064C132.383 343.493 132.095 345.291 132.095 347.456ZM156.359 344.464C157.617 344.464 158.759 344.768 159.783 345.376C160.807 345.973 161.623 346.8 162.231 347.856C162.849 348.901 163.159 350.091 163.159 351.424C163.159 352.757 162.833 353.947 162.183 354.992C161.543 356.037 160.679 356.864 159.591 357.472C158.513 358.08 157.324 358.384 156.023 358.384C154.689 358.384 153.495 358.075 152.439 357.456C151.383 356.837 150.545 355.984 149.927 354.896C149.319 353.808 149.015 352.555 149.015 351.136C149.015 349.707 149.271 348.485 149.783 347.472C150.295 346.448 150.908 345.483 151.623 344.576L157.735 336.88H159.399L152.135 345.888C152.444 345.547 152.967 345.227 153.703 344.928C154.449 344.619 155.335 344.464 156.359 344.464ZM156.119 357.152C157.175 357.152 158.135 356.896 158.999 356.384C159.863 355.861 160.551 355.168 161.063 354.304C161.575 353.429 161.831 352.459 161.831 351.392C161.831 350.336 161.575 349.376 161.063 348.512C160.551 347.648 159.863 346.96 158.999 346.448C158.135 345.936 157.175 345.68 156.119 345.68C155.063 345.68 154.097 345.936 153.223 346.448C152.359 346.96 151.665 347.648 151.143 348.512C150.62 349.376 150.359 350.336 150.359 351.392C150.359 352.459 150.62 353.429 151.143 354.304C151.665 355.168 152.359 355.861 153.223 356.384C154.097 356.896 155.063 357.152 156.119 357.152ZM173.703 344.464C174.961 344.464 176.103 344.768 177.127 345.376C178.151 345.973 178.967 346.8 179.575 347.856C180.193 348.901 180.503 350.091 180.503 351.424C180.503 352.757 180.177 353.947 179.527 354.992C178.887 356.037 178.023 356.864 176.935 357.472C175.857 358.08 174.668 358.384 173.367 358.384C172.033 358.384 170.839 358.075 169.783 357.456C168.727 356.837 167.889 355.984 167.271 354.896C166.663 353.808 166.359 352.555 166.359 351.136C166.359 349.707 166.615 348.485 167.127 347.472C167.639 346.448 168.252 345.483 168.967 344.576L175.079 336.88H176.743L169.479 345.888C169.788 345.547 170.311 345.227 171.047 344.928C171.793 344.619 172.679 344.464 173.703 344.464ZM173.463 357.152C174.519 357.152 175.479 356.896 176.343 356.384C177.207 355.861 177.895 355.168 178.407 354.304C178.919 353.429 179.175 352.459 179.175 351.392C179.175 350.336 178.919 349.376 178.407 348.512C177.895 347.648 177.207 346.96 176.343 346.448C175.479 345.936 174.519 345.68 173.463 345.68C172.407 345.68 171.441 345.936 170.567 346.448C169.703 346.96 169.009 347.648 168.487 348.512C167.964 349.376 167.703 350.336 167.703 351.392C167.703 352.459 167.964 353.429 168.487 354.304C169.009 355.168 169.703 355.861 170.567 356.384C171.441 356.896 172.407 357.152 173.463 357.152ZM184.518 364.384L183.574 363.584C184.129 362.891 184.694 361.899 185.27 360.608C185.857 359.328 186.353 357.819 186.758 356.08C187.164 354.331 187.366 352.437 187.366 350.4C187.366 348.224 187.158 346.213 186.742 344.368C186.337 342.523 185.83 340.923 185.222 339.568C184.625 338.213 184.054 337.173 183.51 336.448L184.566 335.712C185.014 336.309 185.478 337.099 185.958 338.08C186.438 339.061 186.881 340.192 187.286 341.472C187.702 342.741 188.038 344.133 188.294 345.648C188.561 347.152 188.694 348.736 188.694 350.4C188.694 352.555 188.47 354.555 188.022 356.4C187.585 358.245 187.041 359.851 186.39 361.216C185.75 362.581 185.126 363.637 184.518 364.384ZM200.625 347.456C200.625 345.547 200.843 343.904 201.281 342.528C201.729 341.141 202.315 340.005 203.041 339.12C203.777 338.224 204.587 337.563 205.473 337.136C206.369 336.709 207.27 336.496 208.177 336.496C209.094 336.496 209.995 336.709 210.881 337.136C211.777 337.563 212.587 338.224 213.313 339.12C214.038 340.005 214.614 341.141 215.041 342.528C215.478 343.904 215.697 345.547 215.697 347.456C215.697 349.344 215.478 350.976 215.041 352.352C214.614 353.717 214.038 354.848 213.313 355.744C212.587 356.629 211.777 357.291 210.881 357.728C209.995 358.165 209.094 358.384 208.177 358.384C207.27 358.384 206.369 358.165 205.473 357.728C204.587 357.291 203.777 356.629 203.041 355.744C202.315 354.848 201.729 353.717 201.281 352.352C200.843 350.976 200.625 349.344 200.625 347.456ZM202.033 347.456C202.033 349.6 202.321 351.387 202.897 352.816C203.483 354.245 204.246 355.317 205.185 356.032C206.123 356.736 207.121 357.088 208.177 357.088C209.254 357.088 210.257 356.736 211.185 356.032C212.123 355.317 212.881 354.245 213.457 352.816C214.033 351.387 214.321 349.6 214.321 347.456C214.321 345.28 214.033 343.483 213.457 342.064C212.881 340.635 212.123 339.568 211.185 338.864C210.257 338.149 209.254 337.792 208.177 337.792C207.121 337.792 206.123 338.149 205.185 338.864C204.246 339.568 203.483 340.635 202.897 342.064C202.321 343.493 202.033 345.291 202.033 347.456ZM220.552 354.224C220.595 354.341 220.718 354.555 220.92 354.864C221.123 355.173 221.411 355.504 221.784 355.856C222.168 356.197 222.659 356.491 223.256 356.736C223.854 356.981 224.579 357.104 225.432 357.104C227.139 357.104 228.483 356.555 229.464 355.456C230.446 354.357 230.926 352.896 230.904 351.072C230.883 349.387 230.435 348.096 229.56 347.2C228.696 346.304 227.56 345.856 226.152 345.856C225.278 345.856 224.515 346.016 223.864 346.336C223.214 346.656 222.68 347.051 222.264 347.52C221.859 347.979 221.571 348.421 221.4 348.848L220.072 348.464L221.816 336.88H231.416V338.16H223.064L221.832 346.544C221.875 346.437 222.067 346.229 222.408 345.92C222.75 345.6 223.246 345.301 223.896 345.024C224.558 344.747 225.379 344.608 226.36 344.608C227.448 344.608 228.43 344.848 229.304 345.328C230.19 345.808 230.899 346.528 231.432 347.488C231.966 348.448 232.238 349.637 232.248 351.056C232.259 352.464 232.008 353.723 231.496 354.832C230.984 355.931 230.222 356.8 229.208 357.44C228.195 358.069 226.942 358.384 225.448 358.384C224.392 358.384 223.486 358.24 222.728 357.952C221.982 357.653 221.368 357.301 220.888 356.896C220.408 356.491 220.04 356.107 219.784 355.744C219.539 355.371 219.384 355.109 219.32 354.96L220.552 354.224ZM235.625 347.456C235.625 345.547 235.843 343.904 236.281 342.528C236.729 341.141 237.315 340.005 238.041 339.12C238.777 338.224 239.587 337.563 240.473 337.136C241.369 336.709 242.27 336.496 243.177 336.496C244.094 336.496 244.995 336.709 245.881 337.136C246.777 337.563 247.587 338.224 248.313 339.12C249.038 340.005 249.614 341.141 250.041 342.528C250.478 343.904 250.697 345.547 250.697 347.456C250.697 349.344 250.478 350.976 250.041 352.352C249.614 353.717 249.038 354.848 248.313 355.744C247.587 356.629 246.777 357.291 245.881 357.728C244.995 358.165 244.094 358.384 243.177 358.384C242.27 358.384 241.369 358.165 240.473 357.728C239.587 357.291 238.777 356.629 238.041 355.744C237.315 354.848 236.729 353.717 236.281 352.352C235.843 350.976 235.625 349.344 235.625 347.456ZM237.033 347.456C237.033 349.6 237.321 351.387 237.897 352.816C238.483 354.245 239.246 355.317 240.185 356.032C241.123 356.736 242.121 357.088 243.177 357.088C244.254 357.088 245.257 356.736 246.185 356.032C247.123 355.317 247.881 354.245 248.457 352.816C249.033 351.387 249.321 349.6 249.321 347.456C249.321 345.28 249.033 343.483 248.457 342.064C247.881 340.635 247.123 339.568 246.185 338.864C245.257 338.149 244.254 337.792 243.177 337.792C242.121 337.792 241.123 338.149 240.185 338.864C239.246 339.568 238.483 340.635 237.897 342.064C237.321 343.493 237.033 345.291 237.033 347.456ZM261.593 347.456C261.593 345.547 261.812 343.904 262.249 342.528C262.697 341.141 263.284 340.005 264.009 339.12C264.745 338.224 265.556 337.563 266.441 337.136C267.337 336.709 268.239 336.496 269.145 336.496C270.063 336.496 270.964 336.709 271.849 337.136C272.745 337.563 273.556 338.224 274.281 339.12C275.007 340.005 275.583 341.141 276.009 342.528C276.447 343.904 276.665 345.547 276.665 347.456C276.665 349.344 276.447 350.976 276.009 352.352C275.583 353.717 275.007 354.848 274.281 355.744C273.556 356.629 272.745 357.291 271.849 357.728C270.964 358.165 270.063 358.384 269.145 358.384C268.239 358.384 267.337 358.165 266.441 357.728C265.556 357.291 264.745 356.629 264.009 355.744C263.284 354.848 262.697 353.717 262.249 352.352C261.812 350.976 261.593 349.344 261.593 347.456ZM263.001 347.456C263.001 349.6 263.289 351.387 263.865 352.816C264.452 354.245 265.215 355.317 266.153 356.032C267.092 356.736 268.089 357.088 269.145 357.088C270.223 357.088 271.225 356.736 272.153 356.032C273.092 355.317 273.849 354.245 274.425 352.816C275.001 351.387 275.289 349.6 275.289 347.456C275.289 345.28 275.001 343.483 274.425 342.064C273.849 340.635 273.092 339.568 272.153 338.864C271.225 338.149 270.223 337.792 269.145 337.792C268.089 337.792 267.092 338.149 266.153 338.864C265.215 339.568 264.452 340.635 263.865 342.064C263.289 343.493 263.001 345.291 263.001 347.456ZM283.953 358L291.217 348.992C290.908 349.333 290.38 349.659 289.633 349.968C288.897 350.267 288.017 350.416 286.993 350.416C285.745 350.416 284.604 350.117 283.569 349.52C282.545 348.912 281.724 348.085 281.105 347.04C280.497 345.984 280.193 344.789 280.193 343.456C280.193 342.123 280.518 340.933 281.169 339.888C281.82 338.843 282.684 338.016 283.761 337.408C284.838 336.8 286.022 336.496 287.313 336.496C288.657 336.496 289.857 336.805 290.913 337.424C291.969 338.043 292.801 338.896 293.409 339.984C294.028 341.072 294.337 342.325 294.337 343.744C294.337 345.173 294.081 346.4 293.569 347.424C293.057 348.437 292.438 349.397 291.713 350.304L285.617 358H283.953ZM287.233 349.2C288.289 349.2 289.249 348.944 290.113 348.432C290.988 347.92 291.681 347.232 292.193 346.368C292.716 345.493 292.977 344.533 292.977 343.488C292.977 342.421 292.716 341.456 292.193 340.592C291.681 339.717 290.988 339.024 290.113 338.512C289.249 337.989 288.289 337.728 287.233 337.728C286.188 337.728 285.228 337.989 284.353 338.512C283.489 339.024 282.796 339.717 282.273 340.592C281.761 341.456 281.505 342.421 281.505 343.488C281.505 344.533 281.761 345.493 282.273 346.368C282.796 347.232 283.489 347.92 284.353 348.432C285.228 348.944 286.188 349.2 287.233 349.2ZM308.891 358L316.155 348.992C315.845 349.333 315.317 349.659 314.571 349.968C313.835 350.267 312.955 350.416 311.931 350.416C310.683 350.416 309.541 350.117 308.507 349.52C307.483 348.912 306.661 348.085 306.043 347.04C305.435 345.984 305.131 344.789 305.131 343.456C305.131 342.123 305.456 340.933 306.107 339.888C306.757 338.843 307.621 338.016 308.699 337.408C309.776 336.8 310.96 336.496 312.251 336.496C313.595 336.496 314.795 336.805 315.851 337.424C316.907 338.043 317.739 338.896 318.347 339.984C318.965 341.072 319.275 342.325 319.275 343.744C319.275 345.173 319.019 346.4 318.507 347.424C317.995 348.437 317.376 349.397 316.651 350.304L310.555 358H308.891ZM312.171 349.2C313.227 349.2 314.187 348.944 315.051 348.432C315.925 347.92 316.619 347.232 317.131 346.368C317.653 345.493 317.915 344.533 317.915 343.488C317.915 342.421 317.653 341.456 317.131 340.592C316.619 339.717 315.925 339.024 315.051 338.512C314.187 337.989 313.227 337.728 312.171 337.728C311.125 337.728 310.165 337.989 309.291 338.512C308.427 339.024 307.733 339.717 307.211 340.592C306.699 341.456 306.443 342.421 306.443 343.488C306.443 344.533 306.699 345.493 307.211 346.368C307.733 347.232 308.427 347.92 309.291 348.432C310.165 348.944 311.125 349.2 312.171 349.2ZM326.203 358L333.467 348.992C333.158 349.333 332.63 349.659 331.883 349.968C331.147 350.267 330.267 350.416 329.243 350.416C327.995 350.416 326.854 350.117 325.819 349.52C324.795 348.912 323.974 348.085 323.355 347.04C322.747 345.984 322.443 344.789 322.443 343.456C322.443 342.123 322.768 340.933 323.419 339.888C324.07 338.843 324.934 338.016 326.011 337.408C327.088 336.8 328.272 336.496 329.563 336.496C330.907 336.496 332.107 336.805 333.163 337.424C334.219 338.043 335.051 338.896 335.659 339.984C336.278 341.072 336.587 342.325 336.587 343.744C336.587 345.173 336.331 346.4 335.819 347.424C335.307 348.437 334.688 349.397 333.963 350.304L327.867 358H326.203ZM329.483 349.2C330.539 349.2 331.499 348.944 332.363 348.432C333.238 347.92 333.931 347.232 334.443 346.368C334.966 345.493 335.227 344.533 335.227 343.488C335.227 342.421 334.966 341.456 334.443 340.592C333.931 339.717 333.238 339.024 332.363 338.512C331.499 337.989 330.539 337.728 329.483 337.728C328.438 337.728 327.478 337.989 326.603 338.512C325.739 339.024 325.046 339.717 324.523 340.592C324.011 341.456 323.755 342.421 323.755 343.488C323.755 344.533 324.011 345.493 324.523 346.368C325.046 347.232 325.739 347.92 326.603 348.432C327.478 348.944 328.438 349.2 329.483 349.2Z" fill="white"/>
<path d="M91.7891 294.496C93.0051 294.496 94.0505 294.635 94.9251 294.912C95.8105 295.189 96.5038 295.483 97.0051 295.792C97.5171 296.101 97.8211 296.304 97.9171 296.4L96.5091 298.656C96.3491 298.517 96.0665 298.32 95.6611 298.064C95.2558 297.797 94.7491 297.563 94.1411 297.36C93.5331 297.147 92.8398 297.04 92.0611 297.04C90.8558 297.04 89.9011 297.285 89.1971 297.776C88.5038 298.256 88.1571 298.939 88.1571 299.824C88.1571 300.421 88.3385 300.949 88.7011 301.408C89.0745 301.856 89.5971 302.267 90.2691 302.64C90.9411 303.013 91.7251 303.397 92.6211 303.792C93.3571 304.101 94.0771 304.453 94.7811 304.848C95.4958 305.243 96.1411 305.707 96.7171 306.24C97.3038 306.773 97.7678 307.392 98.1091 308.096C98.4611 308.8 98.6371 309.611 98.6371 310.528C98.6371 311.435 98.4505 312.251 98.0771 312.976C97.7145 313.701 97.1971 314.32 96.5251 314.832C95.8638 315.333 95.0905 315.717 94.2051 315.984C93.3198 316.251 92.3651 316.384 91.3411 316.384C90.0505 316.384 88.8825 316.224 87.8371 315.904C86.8025 315.584 85.9651 315.248 85.3251 314.896C84.6958 314.544 84.3331 314.325 84.2371 314.24L85.7251 311.888C85.8531 311.995 86.0878 312.155 86.4291 312.368C86.7705 312.571 87.1918 312.784 87.6931 313.008C88.1945 313.232 88.7598 313.424 89.3891 313.584C90.0185 313.733 90.6905 313.808 91.4051 313.808C92.8345 313.808 93.9171 313.488 94.6531 312.848C95.3891 312.208 95.7571 311.387 95.7571 310.384C95.7571 309.616 95.5225 308.955 95.0531 308.4C94.5838 307.845 93.9598 307.349 93.1811 306.912C92.4025 306.475 91.5438 306.053 90.6051 305.648C89.6451 305.211 88.7651 304.731 87.9651 304.208C87.1651 303.685 86.5198 303.061 86.0291 302.336C85.5491 301.6 85.3091 300.715 85.3091 299.68C85.3091 298.656 85.5971 297.755 86.1731 296.976C86.7598 296.197 87.5438 295.589 88.5251 295.152C89.5171 294.715 90.6051 294.496 91.7891 294.496ZM112.599 316V313.44C112.514 313.707 112.263 314.075 111.847 314.544C111.442 315.013 110.882 315.44 110.167 315.824C109.463 316.197 108.631 316.384 107.671 316.384C106.455 316.384 105.351 316.096 104.359 315.52C103.378 314.944 102.594 314.139 102.007 313.104C101.431 312.059 101.143 310.837 101.143 309.44C101.143 308.043 101.431 306.827 102.007 305.792C102.594 304.747 103.378 303.936 104.359 303.36C105.351 302.773 106.455 302.48 107.671 302.48C108.621 302.48 109.442 302.651 110.135 302.992C110.839 303.333 111.399 303.728 111.815 304.176C112.242 304.624 112.493 305.008 112.567 305.328V302.864H115.319V316H112.599ZM103.895 309.44C103.895 310.389 104.103 311.211 104.519 311.904C104.935 312.597 105.474 313.136 106.135 313.52C106.807 313.893 107.522 314.08 108.279 314.08C109.09 314.08 109.815 313.888 110.455 313.504C111.095 313.12 111.602 312.581 111.975 311.888C112.349 311.184 112.535 310.368 112.535 309.44C112.535 308.512 112.349 307.701 111.975 307.008C111.602 306.304 111.095 305.76 110.455 305.376C109.815 304.981 109.09 304.784 108.279 304.784C107.522 304.784 106.807 304.976 106.135 305.36C105.474 305.744 104.935 306.283 104.519 306.976C104.103 307.669 103.895 308.491 103.895 309.44ZM118.527 302.864H129.983L122.127 313.888H129.663V316H117.631L125.487 304.96H118.527V302.864ZM143.068 316V313.44C142.983 313.707 142.732 314.075 142.316 314.544C141.911 315.013 141.351 315.44 140.636 315.824C139.932 316.197 139.1 316.384 138.14 316.384C136.924 316.384 135.82 316.096 134.828 315.52C133.847 314.944 133.063 314.139 132.476 313.104C131.9 312.059 131.612 310.837 131.612 309.44C131.612 308.043 131.9 306.827 132.476 305.792C133.063 304.747 133.847 303.936 134.828 303.36C135.82 302.773 136.924 302.48 138.14 302.48C139.089 302.48 139.911 302.651 140.604 302.992C141.308 303.333 141.868 303.728 142.284 304.176C142.711 304.624 142.961 305.008 143.036 305.328V302.864H145.788V316H143.068ZM134.364 309.44C134.364 310.389 134.572 311.211 134.988 311.904C135.404 312.597 135.943 313.136 136.604 313.52C137.276 313.893 137.991 314.08 138.748 314.08C139.559 314.08 140.284 313.888 140.924 313.504C141.564 313.12 142.071 312.581 142.444 311.888C142.817 311.184 143.004 310.368 143.004 309.44C143.004 308.512 142.817 307.701 142.444 307.008C142.071 306.304 141.564 305.76 140.924 305.376C140.284 304.981 139.559 304.784 138.748 304.784C137.991 304.784 137.276 304.976 136.604 305.36C135.943 305.744 135.404 306.283 134.988 306.976C134.572 307.669 134.364 308.491 134.364 309.44ZM156.852 302.48C157.716 302.48 158.553 302.661 159.364 303.024C160.185 303.387 160.857 303.963 161.38 304.752C161.913 305.531 162.18 306.549 162.18 307.808V316H159.364V308.352C159.364 307.051 159.06 306.107 158.452 305.52C157.844 304.923 157.06 304.624 156.1 304.624C155.471 304.624 154.863 304.805 154.276 305.168C153.7 305.52 153.225 306.011 152.852 306.64C152.479 307.259 152.292 307.963 152.292 308.752V316H149.508V302.864H152.292V305.2C152.388 304.837 152.649 304.443 153.076 304.016C153.503 303.589 154.047 303.227 154.708 302.928C155.369 302.629 156.084 302.48 156.852 302.48ZM173.869 294.88H181.245C182.387 294.88 183.421 295.12 184.349 295.6C185.288 296.069 186.035 296.763 186.589 297.68C187.155 298.587 187.437 299.696 187.437 301.008C187.437 302.309 187.176 303.387 186.653 304.24C186.141 305.093 185.523 305.739 184.797 306.176C184.072 306.603 183.4 306.837 182.781 306.88L188.013 316H184.909L180.013 307.072H176.605V316H173.869V294.88ZM176.605 305.04H180.285C181.544 305.04 182.584 304.725 183.405 304.096C184.227 303.467 184.637 302.459 184.637 301.072C184.637 299.685 184.227 298.688 183.405 298.08C182.595 297.472 181.56 297.168 180.301 297.168H176.605V305.04ZM193.283 310C193.294 310.789 193.465 311.509 193.795 312.16C194.126 312.811 194.617 313.328 195.267 313.712C195.929 314.096 196.739 314.288 197.699 314.288C198.51 314.288 199.198 314.171 199.763 313.936C200.339 313.691 200.809 313.403 201.171 313.072C201.534 312.731 201.795 312.427 201.955 312.16L203.315 313.84C202.963 314.352 202.531 314.8 202.019 315.184C201.518 315.568 200.905 315.861 200.179 316.064C199.454 316.277 198.569 316.384 197.523 316.384C196.115 316.384 194.894 316.085 193.859 315.488C192.835 314.88 192.046 314.043 191.491 312.976C190.937 311.899 190.659 310.667 190.659 309.28C190.659 308 190.921 306.848 191.443 305.824C191.966 304.789 192.723 303.973 193.715 303.376C194.718 302.779 195.923 302.48 197.331 302.48C198.622 302.48 199.742 302.752 200.691 303.296C201.651 303.829 202.393 304.587 202.915 305.568C203.449 306.549 203.715 307.723 203.715 309.088C203.715 309.173 203.71 309.328 203.699 309.552C203.689 309.765 203.678 309.915 203.667 310H193.283ZM201.059 307.904C201.049 307.467 200.921 306.987 200.675 306.464C200.441 305.941 200.057 305.493 199.523 305.12C198.99 304.747 198.27 304.56 197.363 304.56C196.425 304.56 195.667 304.741 195.091 305.104C194.526 305.467 194.11 305.909 193.843 306.432C193.577 306.944 193.422 307.435 193.379 307.904H201.059ZM211.717 302.48C212.4 302.48 213.035 302.549 213.621 302.688C214.219 302.827 214.731 302.992 215.157 303.184C215.595 303.376 215.904 303.547 216.085 303.696L214.981 305.456C214.768 305.264 214.384 305.051 213.829 304.816C213.275 304.571 212.656 304.448 211.973 304.448C211.227 304.448 210.592 304.597 210.069 304.896C209.547 305.184 209.285 305.605 209.285 306.16C209.285 306.715 209.552 307.157 210.085 307.488C210.629 307.808 211.355 308.075 212.261 308.288C212.987 308.459 213.664 308.688 214.293 308.976C214.933 309.264 215.451 309.664 215.845 310.176C216.24 310.677 216.437 311.349 216.437 312.192C216.437 312.96 216.277 313.616 215.957 314.16C215.637 314.693 215.205 315.125 214.661 315.456C214.117 315.776 213.509 316.011 212.837 316.16C212.165 316.309 211.483 316.384 210.789 316.384C209.979 316.384 209.248 316.299 208.597 316.128C207.947 315.968 207.397 315.776 206.949 315.552C206.512 315.317 206.192 315.115 205.989 314.944L207.093 312.96C207.371 313.227 207.824 313.509 208.453 313.808C209.093 314.107 209.819 314.256 210.629 314.256C211.525 314.256 212.251 314.069 212.805 313.696C213.36 313.312 213.637 312.816 213.637 312.208C213.637 311.749 213.504 311.381 213.237 311.104C212.971 310.827 212.613 310.603 212.165 310.432C211.717 310.261 211.227 310.112 210.693 309.984C210.181 309.867 209.68 309.712 209.189 309.52C208.709 309.328 208.267 309.083 207.861 308.784C207.467 308.475 207.152 308.101 206.917 307.664C206.683 307.216 206.565 306.693 206.565 306.096C206.565 305.339 206.805 304.693 207.285 304.16C207.765 303.616 208.395 303.2 209.173 302.912C209.952 302.624 210.8 302.48 211.717 302.48ZM218.326 302.864H220.902V297.472H223.67V302.864H227.046V305.248H223.67V311.744C223.67 312.512 223.803 313.077 224.07 313.44C224.347 313.803 224.715 313.984 225.174 313.984C225.579 313.984 225.894 313.909 226.118 313.76C226.342 313.611 226.475 313.509 226.518 313.456L227.622 315.504C227.558 315.557 227.387 315.659 227.11 315.808C226.832 315.957 226.475 316.091 226.038 316.208C225.6 316.325 225.088 316.384 224.502 316.384C223.478 316.384 222.619 316.075 221.926 315.456C221.243 314.827 220.902 313.835 220.902 312.48V305.248H218.326V302.864ZM240.599 316V313.44C240.514 313.707 240.263 314.075 239.847 314.544C239.442 315.013 238.882 315.44 238.167 315.824C237.463 316.197 236.631 316.384 235.671 316.384C234.455 316.384 233.351 316.096 232.359 315.52C231.378 314.944 230.594 314.139 230.007 313.104C229.431 312.059 229.143 310.837 229.143 309.44C229.143 308.043 229.431 306.827 230.007 305.792C230.594 304.747 231.378 303.936 232.359 303.36C233.351 302.773 234.455 302.48 235.671 302.48C236.621 302.48 237.442 302.651 238.135 302.992C238.839 303.333 239.399 303.728 239.815 304.176C240.242 304.624 240.493 305.008 240.567 305.328V302.864H243.319V316H240.599ZM231.895 309.44C231.895 310.389 232.103 311.211 232.519 311.904C232.935 312.597 233.474 313.136 234.135 313.52C234.807 313.893 235.522 314.08 236.279 314.08C237.09 314.08 237.815 313.888 238.455 313.504C239.095 313.12 239.602 312.581 239.975 311.888C240.349 311.184 240.535 310.368 240.535 309.44C240.535 308.512 240.349 307.701 239.975 307.008C239.602 306.304 239.095 305.76 238.455 305.376C237.815 304.981 237.09 304.784 236.279 304.784C235.522 304.784 234.807 304.976 234.135 305.36C233.474 305.744 232.935 306.283 232.519 306.976C232.103 307.669 231.895 308.491 231.895 309.44ZM249.647 309.488C249.647 310.864 249.941 311.963 250.527 312.784C251.125 313.595 252.037 314 253.263 314C254.501 314 255.413 313.595 255.999 312.784C256.586 311.963 256.879 310.864 256.879 309.488V302.864H259.631V309.872C259.631 311.152 259.381 312.283 258.879 313.264C258.389 314.245 257.669 315.013 256.719 315.568C255.781 316.112 254.629 316.384 253.263 316.384C251.909 316.384 250.757 316.112 249.807 315.568C248.869 315.013 248.149 314.245 247.647 313.264C247.157 312.283 246.911 311.152 246.911 309.872V302.864H249.647V309.488ZM266.15 316H263.382V302.864H266.15V305.136H266.07C266.124 304.859 266.321 304.512 266.662 304.096C267.004 303.68 267.473 303.307 268.07 302.976C268.668 302.645 269.382 302.48 270.214 302.48C270.822 302.48 271.356 302.565 271.814 302.736C272.284 302.896 272.614 303.056 272.806 303.216L271.67 305.52C271.521 305.371 271.26 305.221 270.886 305.072C270.513 304.912 270.049 304.832 269.494 304.832C268.79 304.832 268.188 305.051 267.686 305.488C267.185 305.925 266.801 306.453 266.534 307.072C266.278 307.68 266.15 308.245 266.15 308.768V316ZM284.881 316V313.44C284.795 313.707 284.545 314.075 284.129 314.544C283.723 315.013 283.163 315.44 282.449 315.824C281.745 316.197 280.913 316.384 279.953 316.384C278.737 316.384 277.633 316.096 276.641 315.52C275.659 314.944 274.875 314.139 274.289 313.104C273.713 312.059 273.425 310.837 273.425 309.44C273.425 308.043 273.713 306.827 274.289 305.792C274.875 304.747 275.659 303.936 276.641 303.36C277.633 302.773 278.737 302.48 279.953 302.48C280.902 302.48 281.723 302.651 282.417 302.992C283.121 303.333 283.681 303.728 284.097 304.176C284.523 304.624 284.774 305.008 284.849 305.328V302.864H287.601V316H284.881ZM276.177 309.44C276.177 310.389 276.385 311.211 276.801 311.904C277.217 312.597 277.755 313.136 278.417 313.52C279.089 313.893 279.803 314.08 280.561 314.08C281.371 314.08 282.097 313.888 282.737 313.504C283.377 313.12 283.883 312.581 284.257 311.888C284.63 311.184 284.817 310.368 284.817 309.44C284.817 308.512 284.63 307.701 284.257 307.008C283.883 306.304 283.377 305.76 282.737 305.376C282.097 304.981 281.371 304.784 280.561 304.784C279.803 304.784 279.089 304.976 278.417 305.36C277.755 305.744 277.217 306.283 276.801 306.976C276.385 307.669 276.177 308.491 276.177 309.44ZM298.665 302.48C299.529 302.48 300.366 302.661 301.177 303.024C301.998 303.387 302.67 303.963 303.193 304.752C303.726 305.531 303.993 306.549 303.993 307.808V316H301.177V308.352C301.177 307.051 300.873 306.107 300.265 305.52C299.657 304.923 298.873 304.624 297.913 304.624C297.283 304.624 296.675 304.805 296.089 305.168C295.513 305.52 295.038 306.011 294.665 306.64C294.291 307.259 294.105 307.963 294.105 308.752V316H291.321V302.864H294.105V305.2C294.201 304.837 294.462 304.443 294.889 304.016C295.315 303.589 295.859 303.227 296.521 302.928C297.182 302.629 297.897 302.48 298.665 302.48ZM306.513 302.864H309.089V297.472H311.857V302.864H315.233V305.248H311.857V311.744C311.857 312.512 311.99 313.077 312.257 313.44C312.534 313.803 312.902 313.984 313.361 313.984C313.766 313.984 314.081 313.909 314.305 313.76C314.529 313.611 314.662 313.509 314.705 313.456L315.809 315.504C315.745 315.557 315.574 315.659 315.297 315.808C315.02 315.957 314.662 316.091 314.225 316.208C313.788 316.325 313.276 316.384 312.689 316.384C311.665 316.384 310.806 316.075 310.113 315.456C309.43 314.827 309.089 313.835 309.089 312.48V305.248H306.513V302.864Z" fill="white"/>
</svg>
